<svg width="132" height="55" viewBox="0 0 132 55" fill="none" xmlns="http://www.w3.org/2000/svg">
<path d="M58.6856 41.2666V34.9868H60.6308V49.7877H58.6856V43.1273H51.4966V49.7877H49.5302V34.9868H51.4966V41.2666H58.6856Z" fill="black"/>
<path d="M72.3617 41.034V39.2157H74.2013V49.7877H72.3617V47.9693C71.4596 49.3649 70.1275 50.0626 68.3655 50.0626C66.8713 50.0626 65.6097 49.527 64.5807 48.4557C63.5376 47.3703 63.016 46.0523 63.016 44.5017C63.016 42.9652 63.5376 41.6543 64.5807 40.5689C65.6238 39.4835 66.8854 38.9408 68.3655 38.9408C70.1275 38.9408 71.4596 39.6385 72.3617 41.034ZM68.5981 48.2865C69.6694 48.2865 70.5645 47.9271 71.2834 47.2081C72.0023 46.4611 72.3617 45.5589 72.3617 44.5017C72.3617 43.4304 72.0023 42.5353 71.2834 41.8164C70.5645 41.0834 69.6694 40.7169 68.5981 40.7169C67.5409 40.7169 66.6528 41.0834 65.9339 41.8164C65.215 42.5353 64.8555 43.4304 64.8555 44.5017C64.8555 45.5589 65.215 46.4611 65.9339 47.2081C66.6528 47.9271 67.5409 48.2865 68.5981 48.2865Z" fill="black"/>
<path d="M84.0293 44.3537C85.1147 44.8048 85.6574 45.6223 85.6574 46.8064C85.6574 47.7086 85.3614 48.4345 84.7694 48.9843C84.1774 49.5199 83.3457 49.7877 82.2744 49.7877H76.9883V39.2157H81.8515C82.8946 39.2157 83.7051 39.4764 84.2831 39.998C84.8751 40.5195 85.1711 41.2173 85.1711 42.0913C85.1711 43.1062 84.7905 43.8603 84.0293 44.3537ZM81.7669 40.8649H78.7856V43.6348H81.7669C82.8382 43.6348 83.3739 43.1626 83.3739 42.2181C83.3739 41.316 82.8382 40.8649 81.7669 40.8649ZM78.7856 48.1173H82.1687C82.7043 48.1173 83.1131 47.9905 83.395 47.7368C83.691 47.483 83.8391 47.1236 83.8391 46.6584C83.8391 46.2214 83.691 45.8831 83.395 45.6435C83.1131 45.3897 82.7043 45.2629 82.1687 45.2629H78.7856V48.1173Z" fill="black"/>
<path d="M97.7922 45.3475H88.9328C89.1161 46.2778 89.546 47.0108 90.2226 47.5465C90.8992 48.068 91.745 48.3288 92.7599 48.3288C94.1554 48.3288 95.1703 47.8143 95.8047 46.7853L97.3693 47.6733C96.3262 49.2662 94.7757 50.0626 92.7176 50.0626C91.0543 50.0626 89.687 49.5411 88.6156 48.4979C87.5725 47.4266 87.051 46.0946 87.051 44.5017C87.051 42.8947 87.5655 41.5697 88.5945 40.5266C89.6235 39.4694 90.9556 38.9408 92.5908 38.9408C94.1413 38.9408 95.4029 39.4905 96.3756 40.59C97.3623 41.6613 97.8556 42.9723 97.8556 44.5228C97.8556 44.7907 97.8345 45.0655 97.7922 45.3475ZM92.5908 40.6746C91.6181 40.6746 90.8005 40.9495 90.138 41.4992C89.4896 42.049 89.0879 42.7961 88.9328 43.7405H95.995C95.8399 42.7679 95.4523 42.0137 94.832 41.4781C94.2118 40.9424 93.4647 40.6746 92.5908 40.6746Z" fill="black"/>
<path d="M104.918 50.0626C103.326 50.0626 102.001 49.534 100.943 48.4768C99.8862 47.4055 99.3575 46.0805 99.3575 44.5017C99.3575 42.9229 99.8862 41.6049 100.943 40.5477C102.001 39.4764 103.326 38.9408 104.918 38.9408C105.962 38.9408 106.899 39.1945 107.731 39.702C108.562 40.1953 109.183 40.8649 109.591 41.7107L108.048 42.5987C107.78 42.0349 107.364 41.5838 106.8 41.2455C106.251 40.9072 105.623 40.738 104.918 40.738C103.861 40.738 102.973 41.0975 102.254 41.8164C101.549 42.5494 101.197 43.4445 101.197 44.5017C101.197 45.5448 101.549 46.4329 102.254 47.1659C102.973 47.8848 103.861 48.2442 104.918 48.2442C105.623 48.2442 106.258 48.0821 106.821 47.7579C107.385 47.4196 107.815 46.9685 108.111 46.4047L109.676 47.3139C109.211 48.1596 108.555 48.8292 107.709 49.3226C106.864 49.8159 105.933 50.0626 104.918 50.0626Z" fill="black"/>
<path d="M115.434 47.5042L118.479 39.2157H120.446L116.132 50.4432C115.681 51.6414 115.047 52.5506 114.229 53.1708C113.412 53.8051 112.481 54.0871 111.438 54.0166V52.3039C112.721 52.4026 113.672 51.6978 114.293 50.1895L114.462 49.8089L109.873 39.2157H111.819L115.434 47.5042Z" fill="black"/>
<path d="M126.538 50.0626C124.945 50.0626 123.62 49.534 122.562 48.4768C121.505 47.4055 120.977 46.0805 120.977 44.5017C120.977 42.9229 121.505 41.6049 122.562 40.5477C123.62 39.4764 124.945 38.9408 126.538 38.9408C127.581 38.9408 128.518 39.1945 129.35 39.702C130.181 40.1953 130.802 40.8649 131.21 41.7107L129.667 42.5987C129.399 42.0349 128.983 41.5838 128.419 41.2455C127.87 40.9072 127.242 40.738 126.538 40.738C125.48 40.738 124.592 41.0975 123.873 41.8164C123.169 42.5494 122.816 43.4445 122.816 44.5017C122.816 45.5448 123.169 46.4329 123.873 47.1659C124.592 47.8848 125.48 48.2442 126.538 48.2442C127.242 48.2442 127.877 48.0821 128.441 47.7579C129.004 47.4196 129.434 46.9685 129.73 46.4047L131.295 47.3139C130.83 48.1596 130.174 48.8292 129.329 49.3226C128.483 49.8159 127.552 50.0626 126.538 50.0626Z" fill="black"/>
<path fill-rule="evenodd" clip-rule="evenodd" d="M15.021 0.640015V5.56646C15.4433 5.69404 15.8002 5.97242 16.029 6.33898H24.2433V4.24199H25.094V6.39555L30.766 12.0675V7.54197L28.3705 5.14653L28.5472 4.96989H26.3056V4.11925H28.5725V0.640015H29.4232V4.09388L29.5735 3.94353L32.4673 6.83727L35.3781 3.94353L35.5285 4.09392V0.640015H36.3792V4.11925H38.6461V4.96989H36.4045L36.5811 5.14653L34.1857 7.54197V12.0675L39.8577 6.39551V4.24199H40.7083V6.33898H48.9227C49.1515 5.97243 49.5084 5.69406 49.9307 5.56648V0.640015H50.7814V5.5196C50.8943 5.54039 51.0035 5.5717 51.1079 5.61247L52.7791 3.94124L53.3806 4.54274L51.8134 6.10997C52.0886 6.42643 52.2552 6.83983 52.2552 7.29214C52.2552 7.42285 52.2413 7.5503 52.2149 7.67311L56.4394 11.5131L55.295 12.772L51.1124 8.97006C51.0066 9.01169 50.8959 9.0436 50.7814 9.06469V13.2813L59.8379 22.3378V22.3696H64.9517V23.2202H59.8379V29.9491H58.1366V24.1471L54.3057 27.978L53.7042 27.3765L58.0874 22.9933L51.269 16.1748V18.3965C51.8543 18.6943 52.2552 19.3023 52.2552 20.004C52.2552 20.2687 52.1981 20.5201 52.0956 20.7466L53.3806 22.0316L52.7791 22.6331L51.567 21.4209C51.3421 21.5979 51.0741 21.7226 50.7814 21.7765V29.1092L51.269 29.5968V33.4541H49.5677V30.3015L45.6421 26.3759V27.6772H44.7914V25.7746L42.5881 27.978L41.9866 27.3765L44.3146 25.0484L41.1696 21.9034H34.899V27.7144L33.5585 29.4167L34.899 31.1191V38.2008L34.899 38.2866L38.0441 42.2807V49.3624H36.3429V42.8701L34.0484 39.9562L33.5585 40.5783L34.899 42.2807V47.4361H33.1978V42.8701L32.4758 41.9533L31.7539 42.8701V47.3449H30.0526V42.2807L31.3931 40.5783L30.9033 39.9562L28.6088 42.8701V49.3624H26.9075V42.2807L30.0526 38.2866L30.0526 38.2008V31.1191L31.3931 29.4167L30.0526 27.7144V21.9034H23.7821L20.6371 25.0484L22.9651 27.3765L22.3636 27.978L20.1603 25.7746V27.6772H19.3096V26.3759L15.384 30.3015V33.4541H13.6827V29.5968L14.1703 29.1092V21.7765C13.8776 21.7226 13.6096 21.5979 13.3848 21.4209L12.1725 22.6331L11.5711 22.0316L12.8561 20.7465C12.7536 20.5201 12.6965 20.2687 12.6965 20.004C12.6965 19.3023 13.0974 18.6943 13.6827 18.3965V16.1748L6.86426 22.9932L11.2475 27.3765L10.646 27.978L6.81505 24.147V29.9491H5.11376V23.2202H1.52588e-05V22.3696H5.11376V22.3378L14.1703 13.2812V9.06468C14.0558 9.04359 13.9451 9.01167 13.8393 8.97004L9.65661 12.772L8.51227 11.5131L12.7369 7.67304C12.7104 7.55025 12.6965 7.42282 12.6965 7.29214C12.6965 6.83985 12.8631 6.42646 13.1383 6.11L11.5711 4.54274L12.1725 3.94124L13.8438 5.61249C13.9482 5.57172 14.0574 5.5404 14.1703 5.51961V0.640015H15.021ZM15.021 9.01783V13.2705H23.3232C23.5616 12.9982 23.8808 12.7983 24.2433 12.7082V8.04027H16.1393C15.9259 8.50733 15.5189 8.8674 15.021 9.01783ZM25.094 12.7028C25.8898 12.89 26.4821 13.6045 26.4821 14.4574C26.4821 14.5394 26.4767 14.6201 26.4661 14.6992L30.766 18.9991V14.4735L25.094 8.80154V12.7028ZM23.8344 16.0497C23.4125 15.8253 23.0903 15.4381 22.9517 14.9718H15.384V18.4334C15.6914 18.607 15.9427 18.8682 16.1041 19.1832H19.7349V20.0338H16.3011C16.2979 20.2352 16.2616 20.4286 16.1974 20.6088L19.4341 23.8454L23.0774 20.2021H24.2433V17.6339H23.8344V16.0497ZM15.7176 21.332C15.5207 21.5128 15.2835 21.6504 15.021 21.7297V28.2585L18.8326 24.4469L15.7176 21.332ZM49.9307 21.7296C49.6682 21.6503 49.431 21.5128 49.2341 21.332L46.1191 24.447L49.9307 28.2586V21.7296ZM48.7543 20.6087C48.6902 20.4286 48.6539 20.2352 48.6506 20.0338H45.2168V19.1832H48.8477C49.009 18.8683 49.2603 18.6071 49.5677 18.4335V14.9718H42.0356C41.8932 15.4511 41.5567 15.847 41.1172 16.0682V17.6339H40.7083V20.2021H41.8743L45.5176 23.8455L48.7543 20.6087ZM38.5174 14.6674C38.5094 14.5985 38.5052 14.5284 38.5052 14.4574C38.5052 13.6173 39.08 12.9115 39.8577 12.7116V8.8015L34.1857 14.4735V18.9991L38.5174 14.6674ZM40.7083 12.6997C41.0856 12.7853 41.4179 12.9893 41.6642 13.2705H49.9307V9.01781C49.4328 8.86738 49.0258 8.50732 48.8125 8.04027H40.7083V12.6997ZM32.4844 21.9034H31.7539V27.125L32.4758 28.0418L33.1977 27.125V21.9034H32.4844ZM39.8577 17.6339V20.2021H35.3887L39.4159 16.1748V17.6339H39.8577ZM25.094 17.6339V20.2021H29.563L25.5357 16.1748V17.6339H25.094ZM32.4758 30.7917L31.7539 31.7085L31.7539 32.0156V38.2866L32.4758 39.2033L33.1977 38.2866V32.0156L33.1978 31.7085L32.4758 30.7917ZM14.499 8.24393C15.0246 8.24393 15.4507 7.8178 15.4507 7.29214C15.4507 6.76649 15.0246 6.34036 14.499 6.34036C13.9733 6.34036 13.5472 6.76649 13.5472 7.29214C13.5472 7.8178 13.9733 8.24393 14.499 8.24393ZM24.6797 15.4092C25.2054 15.4092 25.6315 14.9831 25.6315 14.4574C25.6315 13.9318 25.2054 13.5056 24.6797 13.5056C24.154 13.5056 23.7279 13.9318 23.7279 14.4574C23.7279 14.9831 24.154 15.4092 24.6797 15.4092ZM41.2595 14.4574C41.2595 14.9831 40.8333 15.4092 40.3077 15.4092C39.782 15.4092 39.3559 14.9831 39.3559 14.4574C39.3559 13.9318 39.782 13.5056 40.3077 13.5056C40.8333 13.5056 41.2595 13.9318 41.2595 14.4574ZM50.4528 8.24393C50.9784 8.24393 51.4046 7.8178 51.4046 7.29214C51.4046 6.76649 50.9784 6.34036 50.4528 6.34036C49.9271 6.34036 49.501 6.76649 49.501 7.29214C49.501 7.8178 49.9271 8.24393 50.4528 8.24393ZM51.4046 20.004C51.4046 20.5296 50.9784 20.9558 50.4528 20.9558C49.9271 20.9558 49.501 20.5296 49.501 20.004C49.501 19.4783 49.9271 19.0522 50.4528 19.0522C50.9784 19.0522 51.4046 19.4783 51.4046 20.004ZM14.499 20.9558C15.0246 20.9558 15.4507 20.5296 15.4507 20.004C15.4507 19.4783 15.0246 19.0522 14.499 19.0522C13.9733 19.0522 13.5472 19.4783 13.5472 20.004C13.5472 20.5296 13.9733 20.9558 14.499 20.9558Z" fill="black"/>
</svg>
