<svg width="59" height="59" viewBox="0 0 59 59" fill="none" xmlns="http://www.w3.org/2000/svg">
<path d="M4.60938 16.5938C5.34286 16.5938 6.04631 16.8851 6.56496 17.4038C7.08362 17.9224 7.375 18.6259 7.375 19.3594V35.0312H22.125V19.3594C22.1254 18.722 22.3458 18.1044 22.7491 17.6109C23.1524 17.1174 23.7138 16.7784 24.3383 16.6511C24.9628 16.5238 25.6121 16.6161 26.1763 16.9124C26.7406 17.2087 27.1852 17.6908 27.435 18.2771L43.5982 2.11386C43.7711 1.94096 44.0055 1.8438 44.25 1.84375H56.2344C56.4789 1.84375 56.7134 1.94088 56.8862 2.11376C57.0591 2.28665 57.1562 2.52113 57.1562 2.76562V26.7344C57.1562 26.9789 57.059 27.2133 56.8861 27.3861L27.3861 56.8861C27.2129 57.0584 26.9787 57.1555 26.7344 57.1562H2.76562C2.52113 57.1562 2.28664 57.0591 2.11376 56.8862C1.94088 56.7134 1.84375 56.4789 1.84375 56.2344V19.3594C1.84375 18.6259 2.13513 17.9224 2.65379 17.4038C3.17244 16.8851 3.87589 16.5938 4.60938 16.5938ZM55.3125 7.375H48.8594V23.9688H55.3125V7.375ZM27.6562 54.009L55.3125 26.3527V25.8125H48.8594V28.5781C48.8594 28.8226 48.7622 29.0571 48.5894 29.23C48.4165 29.4029 48.182 29.5 47.9375 29.5H41.4844V32.2656C41.4844 32.5101 41.3872 32.7446 41.2144 32.9175C41.0415 33.0904 40.807 33.1875 40.5625 33.1875H34.1094V35.9531C34.1094 36.1976 34.0122 36.4321 33.8394 36.605C33.6665 36.7779 33.432 36.875 33.1875 36.875H27.6562V54.009ZM47.0156 27.6562V7.375H46.4754L41.4844 12.366V27.6562H47.0156ZM39.6406 31.3438V14.2098L34.1094 19.741V31.3438H39.6406ZM27.6562 35.0312H32.2656V21.5848L27.6562 26.1942V35.0312ZM27.6562 23.5871L45.442 5.80136C45.6148 5.62846 45.8493 5.5313 46.0938 5.53125H55.3125V3.6875H44.6317L27.6562 20.6629V23.5871ZM23.9688 55.3125H25.8125V22.125H23.9688V55.3125ZM23.9688 20.2812H25.8125V19.3594C25.8125 19.1149 25.7154 18.8804 25.5425 18.7075C25.3696 18.5346 25.1351 18.4375 24.8906 18.4375C24.6461 18.4375 24.4116 18.5346 24.2388 18.7075C24.0659 18.8804 23.9688 19.1149 23.9688 19.3594V20.2812ZM7.375 55.3125H22.125V51.625H7.375V55.3125ZM7.375 49.7812H22.125V46.0938H7.375V49.7812ZM7.375 44.25H22.125V40.5625H7.375V44.25ZM7.375 38.7188H22.125V36.875H7.375V38.7188ZM3.6875 55.3125H5.53125V22.125H3.6875V55.3125ZM3.6875 20.2812H5.53125V19.3594C5.53125 19.1149 5.43412 18.8804 5.26124 18.7075C5.08836 18.5346 4.85387 18.4375 4.60938 18.4375C4.36488 18.4375 4.13039 18.5346 3.95751 18.7075C3.78463 18.8804 3.6875 19.1149 3.6875 19.3594V20.2812Z" fill="black"/>
<path d="M35.9531 35.0312H42.4062V36.875H37.7969V40.5625H31.3438V44.25H29.5V38.7188H35.9531V35.0312Z" fill="black"/>
<path d="M31.3438 46.0938H29.5V47.9375H31.3438V46.0938Z" fill="black"/>
<path d="M45.1719 31.3438H43.3281V33.1875H45.1719V31.3438Z" fill="black"/>
</svg>
