<svg width="16" height="16" viewBox="0 0 16 16" fill="none" xmlns="http://www.w3.org/2000/svg">
<path d="M8.00052 10.1642C9.17873 10.1642 10.1339 9.26209 10.1339 8.14934C10.1339 7.03658 9.17873 6.13452 8.00052 6.13452C6.82231 6.13452 5.86719 7.03658 5.86719 8.14934C5.86719 9.26209 6.82231 10.1642 8.00052 10.1642Z" fill="#35455C"/>
<path d="M6.00065 1.85303L4.78065 3.11229H2.66732C1.93398 3.11229 1.33398 3.67895 1.33398 4.37155V11.9271C1.33398 12.6197 1.93398 13.1864 2.66732 13.1864H13.334C14.0673 13.1864 14.6673 12.6197 14.6673 11.9271V4.37155C14.6673 3.67895 14.0673 3.11229 13.334 3.11229H11.2207L10.0007 1.85303H6.00065ZM8.00065 11.2975C6.16065 11.2975 4.66732 9.8871 4.66732 8.14932C4.66732 6.41155 6.16065 5.00118 8.00065 5.00118C9.84065 5.00118 11.334 6.41155 11.334 8.14932C11.334 9.8871 9.84065 11.2975 8.00065 11.2975Z" fill="#35455C"/>
</svg>
