<svg width="15" height="15" viewBox="0 0 15 15" fill="none" xmlns="http://www.w3.org/2000/svg">
<circle cx="7.5" cy="7.5" r="7.5" fill="#35455C"/>
<path d="M6.62461 9.36C6.62461 9.032 6.69661 8.728 6.84061 8.448C6.98461 8.168 7.16061 7.928 7.36861 7.728C7.57661 7.52 7.78461 7.324 7.99261 7.14C8.20061 6.948 8.37661 6.744 8.52061 6.528C8.66461 6.304 8.73661 6.072 8.73661 5.832C8.73661 5.496 8.62061 5.24 8.38861 5.064C8.15661 4.88 7.84461 4.788 7.45261 4.788C7.07661 4.788 6.75261 4.884 6.48061 5.076C6.20861 5.268 6.01261 5.54 5.89261 5.892L4.70461 5.22C4.92861 4.652 5.28861 4.216 5.78461 3.912C6.28861 3.6 6.85661 3.444 7.48861 3.444C8.20061 3.444 8.81661 3.648 9.33661 4.056C9.85661 4.464 10.1166 5.028 10.1166 5.748C10.1166 6.084 10.0446 6.4 9.90061 6.696C9.75661 6.984 9.58061 7.232 9.37261 7.44C9.16461 7.648 8.95661 7.852 8.74861 8.052C8.54061 8.244 8.36461 8.452 8.22061 8.676C8.07661 8.9 8.00461 9.128 8.00461 9.36H6.62461ZM7.95661 11.88C7.78061 12.056 7.56861 12.144 7.32061 12.144C7.07261 12.144 6.86061 12.056 6.68461 11.88C6.50861 11.704 6.42061 11.492 6.42061 11.244C6.42061 10.996 6.50461 10.784 6.67261 10.608C6.84861 10.432 7.06461 10.344 7.32061 10.344C7.56861 10.344 7.78061 10.432 7.95661 10.608C8.13261 10.784 8.22061 10.996 8.22061 11.244C8.22061 11.492 8.13261 11.704 7.95661 11.88Z" fill="white"/>
</svg>
