<svg width="40" height="40" viewBox="0 0 40 40" fill="none" xmlns="http://www.w3.org/2000/svg">
<path d="M15.625 3.75H8.125C7.95924 3.75 7.80027 3.81585 7.68306 3.93306C7.56585 4.05027 7.5 4.20924 7.5 4.375V8.75C7.5 8.91576 7.56585 9.07473 7.68306 9.19194C7.80027 9.30915 7.95924 9.375 8.125 9.375H15.625C15.7908 9.375 15.9497 9.30915 16.0669 9.19194C16.1842 9.07473 16.25 8.91576 16.25 8.75V4.375C16.25 4.20924 16.1842 4.05027 16.0669 3.93306C15.9497 3.81585 15.7908 3.75 15.625 3.75ZM8.75 5H15V8.125H8.75V5Z" fill="#FF7C00"/>
<path d="M8.75 12.5H8.125C7.95924 12.5 7.80027 12.4342 7.68306 12.3169C7.56585 12.1997 7.5 12.0408 7.5 11.875C7.5 11.7092 7.56585 11.5503 7.68306 11.4331C7.80027 11.3158 7.95924 11.25 8.125 11.25H8.75C8.91576 11.25 9.07473 11.3158 9.19194 11.4331C9.30915 11.5503 9.375 11.7092 9.375 11.875C9.375 12.0408 9.30915 12.1997 9.19194 12.3169C9.07473 12.4342 8.91576 12.5 8.75 12.5Z" fill="#FF7C00"/>
<path d="M18.125 11.875H17.2819L17.65 12.7431C17.7035 12.8692 17.7141 13.0093 17.6803 13.142C17.6464 13.2747 17.5699 13.3925 17.4625 13.4775L16.2188 14.4625L16.8369 15.9106C16.8907 16.0368 16.9015 16.1772 16.8676 16.3102C16.8337 16.4431 16.757 16.5612 16.6494 16.6462L15.4119 17.625L16.0312 19.0794C16.0854 19.2057 16.0963 19.3464 16.0624 19.4796C16.0285 19.6128 15.9517 19.7311 15.8438 19.8162L14.6037 20.7881L15.2287 22.2337C15.2833 22.3603 15.2946 22.5014 15.2606 22.635C15.2267 22.7686 15.1496 22.8873 15.0413 22.9725L13.8 23.9456L14.4181 25.3981C14.4719 25.5243 14.4827 25.6647 14.4489 25.7977C14.415 25.9306 14.3383 26.0487 14.2306 26.1337L12.9875 27.1081L13.6063 28.5612C13.6604 28.6876 13.6713 28.8283 13.6374 28.9615C13.6035 29.0947 13.5267 29.213 13.4187 29.2981L12.1775 30.2712L12.795 31.7169C12.8491 31.8432 12.8601 31.9839 12.8262 32.1171C12.7923 32.2503 12.7154 32.3686 12.6075 32.4537L11.3688 33.4263L11.9875 34.8806C12.0413 35.0068 12.0521 35.1472 12.0182 35.2802C11.9843 35.4131 11.9077 35.5312 11.8 35.6163L10.5794 36.5756C10.5794 36.5756 11.0544 37.5587 11.0975 37.6444C11.1798 37.7928 11.2317 37.9562 11.25 38.125C11.25 38.2908 11.1842 38.4497 11.0669 38.5669C10.9497 38.6842 10.7908 38.75 10.625 38.75H5.625C5.45924 38.75 5.30027 38.6842 5.18306 38.5669C5.06585 38.4497 5 38.2908 5 38.125V1.875C5 1.70924 5.06585 1.55027 5.18306 1.43306C5.30027 1.31585 5.45924 1.25 5.625 1.25H18.125C18.2908 1.25 18.4497 1.31585 18.5669 1.43306C18.6842 1.55027 18.75 1.70924 18.75 1.875V11.25C18.75 11.4158 18.6842 11.5747 18.5669 11.6919C18.4497 11.8092 18.2908 11.875 18.125 11.875ZM6.25 37.5H9.635L9.23563 36.6625C9.17466 36.5344 9.15908 36.3894 9.19145 36.2513C9.22382 36.1132 9.30222 35.9902 9.41375 35.9025L10.65 34.93L10.0312 33.4763C9.97728 33.35 9.9664 33.2094 10.0003 33.0764C10.0342 32.9433 10.111 32.8251 10.2188 32.74L11.4544 31.7675L10.8362 30.3206C10.782 30.1942 10.7709 30.0534 10.8048 29.9201C10.8387 29.7867 10.9157 29.6683 11.0238 29.5831L12.265 28.61L11.6469 27.1575C11.5929 27.0312 11.582 26.8907 11.6159 26.7576C11.6498 26.6245 11.7266 26.5063 11.8344 26.4213L13.0706 25.4481L12.4519 23.995C12.3977 23.8687 12.3868 23.728 12.4207 23.5948C12.4546 23.4616 12.5314 23.3432 12.6394 23.2581L13.8794 22.2863L13.2575 20.8413C13.2028 20.7146 13.1915 20.5734 13.2254 20.4396C13.2593 20.3059 13.3365 20.1871 13.445 20.1019L14.6862 19.1287L14.0681 17.6763C14.0145 17.5501 14.0037 17.4099 14.0376 17.2771C14.0715 17.1442 14.1481 17.0263 14.2556 16.9412L15.5 15.9625L14.8819 14.5144C14.8281 14.3882 14.8173 14.2478 14.8511 14.1148C14.885 13.9819 14.9617 13.8638 15.0694 13.7788L16.3125 12.7931L15.9237 11.875H13.3512L9.775 14.855C9.66273 14.9486 9.52119 14.9999 9.375 15H6.25V37.5ZM17.5 2.5H6.25V13.75H9.14875L12.725 10.77C12.8373 10.6764 12.9788 10.6251 13.125 10.625H17.5V2.5Z" fill="#FF7C00"/>
<path d="M34.375 38.75H21.875C21.7092 38.75 21.5503 38.6842 21.4331 38.5669C21.3158 38.4497 21.25 38.2908 21.25 38.125V1.875C21.25 1.70924 21.3158 1.55027 21.4331 1.43306C21.5503 1.31585 21.7092 1.25 21.875 1.25H34.375C34.5408 1.25 34.6997 1.31585 34.8169 1.43306C34.9342 1.55027 35 1.70924 35 1.875V38.125C35 38.2908 34.9342 38.4497 34.8169 38.5669C34.6997 38.6842 34.5408 38.75 34.375 38.75ZM33.75 2.5H32.5V15.625C32.5 15.7908 32.4342 15.9497 32.3169 16.0669C32.1997 16.1842 32.0408 16.25 31.875 16.25C31.7092 16.25 31.5503 16.1842 31.4331 16.0669C31.3158 15.9497 31.25 15.7908 31.25 15.625V2.5H25.625V11.25C25.625 11.4158 25.5592 11.5747 25.4419 11.6919C25.3247 11.8092 25.1658 11.875 25 11.875C24.8342 11.875 24.6753 11.8092 24.5581 11.6919C24.4408 11.5747 24.375 11.4158 24.375 11.25V2.5H22.5V37.5H24.375V30C24.375 29.8342 24.4408 29.6753 24.5581 29.5581C24.6753 29.4408 24.8342 29.375 25 29.375C25.1658 29.375 25.3247 29.4408 25.4419 29.5581C25.5592 29.6753 25.625 29.8342 25.625 30V37.5H28.125V22.9475C27.2712 22.43 26.875 20.8575 26.875 19.375C26.875 17.8925 27.2712 16.32 28.125 15.8025V10.625C28.125 10.4592 28.1908 10.3003 28.3081 10.1831C28.4253 10.0658 28.5842 10 28.75 10C28.9158 10 29.0747 10.0658 29.1919 10.1831C29.3092 10.3003 29.375 10.4592 29.375 10.625V16.1687C29.3827 16.1954 29.3883 16.2225 29.3919 16.25C29.3937 16.331 29.3793 16.4116 29.3496 16.4869C29.3199 16.5623 29.2753 16.631 29.2187 16.6889C29.162 16.7469 29.0944 16.7929 29.0197 16.8243C28.945 16.8557 28.8648 16.8719 28.7838 16.8719C28.5963 16.9531 28.125 17.8225 28.125 19.375C28.125 20.9275 28.5963 21.7969 28.75 21.875C28.9158 21.875 29.0747 21.9408 29.1919 22.0581C29.3092 22.1753 29.375 22.3342 29.375 22.5V37.5H31.25V33.75C31.25 33.5842 31.3158 33.4253 31.4331 33.3081C31.5503 33.1908 31.7092 33.125 31.875 33.125C32.0408 33.125 32.1997 33.1908 32.3169 33.3081C32.4342 33.4253 32.5 33.5842 32.5 33.75V37.5H33.75V2.5Z" fill="#FF7C00"/>
<path d="M28.75 7.5C28.5842 7.5 28.4253 7.43415 28.3081 7.31694C28.1908 7.19973 28.125 7.04076 28.125 6.875V3.75C28.125 3.58424 28.1908 3.42527 28.3081 3.30806C28.4253 3.19085 28.5842 3.125 28.75 3.125C28.9158 3.125 29.0747 3.19085 29.1919 3.30806C29.3092 3.42527 29.375 3.58424 29.375 3.75V6.875C29.375 7.04076 29.3092 7.19973 29.1919 7.31694C29.0747 7.43415 28.9158 7.5 28.75 7.5Z" fill="#FF7C00"/>
<path d="M30.625 21.25C30.4592 21.25 30.3003 21.1842 30.1831 21.0669C30.0658 20.9497 30 20.7908 30 20.625V17.5C30 17.3342 30.0658 17.1753 30.1831 17.0581C30.3003 16.9408 30.4592 16.875 30.625 16.875C30.7908 16.875 30.9497 16.9408 31.0669 17.0581C31.1842 17.1753 31.25 17.3342 31.25 17.5V20.625C31.25 20.7908 31.1842 20.9497 31.0669 21.0669C30.9497 21.1842 30.7908 21.25 30.625 21.25Z" fill="#FF7C00"/>
<path d="M31.875 30.625C31.7092 30.625 31.5503 30.5592 31.4331 30.4419C31.3158 30.3247 31.25 30.1658 31.25 30V24.375C31.25 24.2092 31.3158 24.0503 31.4331 23.9331C31.5503 23.8158 31.7092 23.75 31.875 23.75C32.0408 23.75 32.1997 23.8158 32.3169 23.9331C32.4342 24.0503 32.5 24.2092 32.5 24.375V30C32.5 30.1658 32.4342 30.3247 32.3169 30.4419C32.1997 30.5592 32.0408 30.625 31.875 30.625Z" fill="#FF7C00"/>
<path d="M25 16.875C24.8342 16.875 24.6753 16.8092 24.5581 16.6919C24.4408 16.5747 24.375 16.4158 24.375 16.25V13.75C24.375 13.5842 24.4408 13.4253 24.5581 13.3081C24.6753 13.1908 24.8342 13.125 25 13.125C25.1658 13.125 25.3247 13.1908 25.4419 13.3081C25.5592 13.4253 25.625 13.5842 25.625 13.75V16.25C25.625 16.4158 25.5592 16.5747 25.4419 16.6919C25.3247 16.8092 25.1658 16.875 25 16.875Z" fill="#FF7C00"/>
<path d="M25 25.625C24.8342 25.625 24.6753 25.5592 24.5581 25.4419C24.4408 25.3247 24.375 25.1658 24.375 25V19.375C24.375 19.2092 24.4408 19.0503 24.5581 18.9331C24.6753 18.8158 24.8342 18.75 25 18.75C25.1658 18.75 25.3247 18.8158 25.4419 18.9331C25.5592 19.0503 25.625 19.2092 25.625 19.375V25C25.625 25.1658 25.5592 25.3247 25.4419 25.4419C25.3247 25.5592 25.1658 25.625 25 25.625Z" fill="#FF7C00"/>
</svg>
