<svg width="38" height="38" viewBox="0 0 38 38" fill="none" xmlns="http://www.w3.org/2000/svg">
<path d="M13.9334 11.3999C13.5534 11.3999 13.3 11.1466 13.3 10.7666C13.3 10.3866 13.5534 10.1333 13.9334 10.1333C14.3134 10.1333 14.5667 10.3866 14.5667 10.7666C14.5667 11.1466 14.3134 11.3999 13.9334 11.3999Z" fill="#FF7C00"/>
<path d="M11.3999 11.3999C11.0199 11.3999 10.7666 11.1466 10.7666 10.7666C10.7666 10.3866 11.0199 10.1333 11.3999 10.1333C11.7799 10.1333 12.0332 10.3866 12.0332 10.7666C12.0332 11.1466 11.7799 11.3999 11.3999 11.3999Z" fill="#FF7C00"/>
<path d="M11.3999 13.9336C11.7799 13.9336 12.0332 14.1869 12.0332 14.5669C12.0332 14.9469 11.7799 15.2002 11.3999 15.2002C11.0832 15.2002 10.7666 14.8835 10.7666 14.5669C10.7666 14.187 11.0199 13.9336 11.3999 13.9336Z" fill="#FF7C00"/>
<path d="M13.9334 13.9336C14.3134 13.9336 14.5667 14.1869 14.5667 14.5669C14.5667 14.9469 14.3134 15.2002 13.9334 15.2002C13.5534 15.2002 13.3 14.8835 13.3 14.5669C13.3 14.187 13.5534 13.9336 13.9334 13.9336Z" fill="#FF7C00"/>
<path d="M32.9334 17.1001C33.3134 17.1001 33.5667 17.3534 33.5667 17.7334C33.5667 18.1134 33.3134 18.3667 32.9334 18.3667C32.5534 18.3667 32.3 18.1134 32.3 17.7334C32.3 17.3534 32.5534 17.1001 32.9334 17.1001Z" fill="#FF7C00"/>
<path d="M30.3999 17.1001C30.7799 17.1001 31.0332 17.3534 31.0332 17.7334C31.0332 18.1134 30.7799 18.3667 30.3999 18.3667C30.0199 18.3667 29.7666 18.1134 29.7666 17.7334C29.7666 17.3534 30.0199 17.1001 30.3999 17.1001Z" fill="#FF7C00"/>
<path d="M30.3999 20.8999C30.7799 20.8999 31.0332 21.1532 31.0332 21.5332C31.0332 21.9132 30.7799 22.1665 30.3999 22.1665C30.0832 22.1665 29.7666 21.8498 29.7666 21.5332C29.7666 21.1532 30.0199 20.8999 30.3999 20.8999Z" fill="#FF7C00"/>
<path d="M32.9334 20.8999C33.3134 20.8999 33.5667 21.1532 33.5667 21.5332C33.5667 21.9132 33.3134 22.1665 32.9334 22.1665C32.6167 22.1665 32.3 21.8498 32.3 21.5332C32.3 21.1532 32.5534 20.8999 32.9334 20.8999Z" fill="#FF7C00"/>
<path d="M34.8334 38H28.5001H22.1668H15.8334H9.50006H3.16676C2.78676 38 2.53345 37.7467 2.53345 37.3667V0.633381C2.53345 0.253384 2.78676 7.62939e-05 3.16676 7.62939e-05H9.50006H15.8334H22.1667H28.5001H34.8334C35.2134 7.62939e-05 35.4667 0.253384 35.4667 0.633381V19.6334V37.3667C35.4668 37.7467 35.2134 38 34.8334 38ZM34.2001 20.2667H29.1334V36.7333H34.2001V20.2667ZM21.5334 26.6H16.4667V36.7333H21.5334V26.6ZM15.2001 25.9667V13.3H10.1334V36.7333H15.2001V25.9667ZM3.80006 36.7333H8.86676V12.6666V1.26662H3.80006V36.7333ZM10.1334 12.0333H15.2001V1.26662H10.1334V12.0333ZM16.4668 12.6667V25.3333H21.5334V1.26662H16.4668V12.6667ZM22.8001 25.9667V36.7333H27.8668V19.6333V1.26662H22.8001V25.9667ZM34.2001 1.26669H29.1334V19H34.2001V1.26669Z" fill="#FF7C00"/>
<path d="M20.2669 24.6997C19.8869 24.6997 19.6335 24.4464 19.6335 24.0664C19.6335 23.6864 19.8869 23.4331 20.2669 23.4331C20.6469 23.4331 20.9002 23.6864 20.9002 24.0664C20.9002 24.4464 20.6469 24.6997 20.2669 24.6997Z" fill="#FF7C00"/>
<path d="M17.7332 24.6997C17.3532 24.6997 17.0999 24.4464 17.0999 24.0664C17.0999 23.6864 17.3532 23.4331 17.7332 23.4331C18.1132 23.4331 18.3665 23.6864 18.3665 24.0664C18.3665 24.4464 18.1132 24.6997 17.7332 24.6997Z" fill="#FF7C00"/>
<path d="M17.7332 27.2333C18.1132 27.2333 18.3665 27.4866 18.3665 27.8666C18.3665 28.2466 18.1132 28.5 17.7332 28.5C17.3532 28.5 17.0999 28.1833 17.0999 27.8667C17.0999 27.4867 17.3532 27.2333 17.7332 27.2333Z" fill="#FF7C00"/>
<path d="M20.2669 27.2333C20.6469 27.2333 20.9002 27.4866 20.9002 27.8666C20.9002 28.2466 20.6469 28.5 20.2669 28.5C19.8869 28.5 19.6335 28.1833 19.6335 27.8667C19.6335 27.4867 19.8869 27.2333 20.2669 27.2333Z" fill="#FF7C00"/>
<path d="M7.60011 36.1001C7.22011 36.1001 6.9668 35.7834 6.9668 35.4668C6.9668 35.1501 7.22011 34.8335 7.60011 34.8335C7.98011 34.8335 8.23341 35.0868 8.23341 35.4668C8.23341 35.8468 7.98011 36.1001 7.60011 36.1001Z" fill="#FF7C00"/>
<path d="M5.06666 36.1001C4.68666 36.1001 4.43335 35.7834 4.43335 35.4668C4.43335 35.1501 4.68666 34.8335 5.06666 34.8335C5.44666 34.8335 5.69997 35.0868 5.69997 35.4668C5.69997 35.8468 5.44666 36.1001 5.06666 36.1001Z" fill="#FF7C00"/>
<path d="M7.60011 3.16699C7.22011 3.16699 6.9668 2.91368 6.9668 2.53368C6.9668 2.15368 7.22011 1.90038 7.60011 1.90038C7.98011 1.90038 8.23341 2.15368 8.23341 2.53368C8.23341 2.91368 7.98011 3.16699 7.60011 3.16699Z" fill="#FF7C00"/>
<path d="M5.06666 3.16699C4.68666 3.16699 4.43335 2.91368 4.43335 2.53368C4.43335 2.15368 4.68666 1.90038 5.06666 1.90038C5.44666 1.90038 5.69997 2.15368 5.69997 2.53368C5.69997 2.91368 5.44666 3.16699 5.06666 3.16699Z" fill="#FF7C00"/>
<path d="M26.6001 36.1001C26.2201 36.1001 25.9668 35.8468 25.9668 35.4668C25.9668 35.0868 26.2201 34.8335 26.6001 34.8335C26.9801 34.8335 27.2334 35.0868 27.2334 35.4668C27.2334 35.8468 26.9801 36.1001 26.6001 36.1001Z" fill="#FF7C00"/>
<path d="M24.0667 36.1001C23.6867 36.1001 23.4333 35.8468 23.4333 35.4668C23.4333 35.0868 23.6867 34.8335 24.0667 34.8335C24.4467 34.8335 24.7 35.0868 24.7 35.4668C24.7 35.8468 24.4467 36.1001 24.0667 36.1001Z" fill="#FF7C00"/>
<path d="M26.6001 3.16699C26.2201 3.16699 25.9668 2.91368 25.9668 2.53368C25.9668 2.15368 26.2201 1.90038 26.6001 1.90038C26.9801 1.90038 27.2334 2.15368 27.2334 2.53368C27.2334 2.91368 26.9801 3.16699 26.6001 3.16699Z" fill="#FF7C00"/>
<path d="M24.0667 3.16699C23.6867 3.16699 23.4333 2.91368 23.4333 2.53368C23.4333 2.15368 23.6867 1.90038 24.0667 1.90038C24.4467 1.90038 24.7 2.15368 24.7 2.53368C24.7 2.91368 24.4467 3.16699 24.0667 3.16699Z" fill="#FF7C00"/>
</svg>
