<svg width="60" height="59" viewBox="0 0 60 59" fill="none" xmlns="http://www.w3.org/2000/svg">
<path d="M22 41.3C21.4 41.3 21 41.6933 21 42.2833C21 42.8733 21.4 43.2666 22 43.2666C22.6 43.2666 22.9999 42.8733 22.9999 42.2833C22.9999 41.6933 22.6 41.3 22 41.3Z" fill="#FF7C00"/>
<path d="M18 41.3C17.4 41.3 17 41.6933 17 42.2833C17 42.8733 17.4 43.2666 18 43.2666C18.6 43.2666 18.9999 42.8733 18.9999 42.2833C18.9999 41.6933 18.6 41.3 18 41.3Z" fill="#FF7C00"/>
<path d="M18 37.3667C18.6 37.3667 18.9999 36.9734 18.9999 36.3834C18.9999 35.7934 18.6 35.4001 18 35.4001C17.4999 35.4001 17 35.8919 17 36.3834C17 36.9733 17.4 37.3667 18 37.3667Z" fill="#FF7C00"/>
<path d="M22 37.3667C22.6 37.3667 22.9999 36.9734 22.9999 36.3834C22.9999 35.7934 22.6 35.4001 22 35.4001C21.4 35.4001 21 35.8919 21 36.3834C21 36.9733 21.4 37.3667 22 37.3667Z" fill="#FF7C00"/>
<path d="M52 32.45C52.6 32.45 52.9999 32.0567 52.9999 31.4667C52.9999 30.8767 52.6 30.4834 52 30.4834C51.4 30.4834 51 30.8767 51 31.4667C51 32.0567 51.4 32.45 52 32.45Z" fill="#FF7C00"/>
<path d="M48 32.45C48.6 32.45 48.9999 32.0567 48.9999 31.4667C48.9999 30.8767 48.6 30.4834 48 30.4834C47.4 30.4834 47 30.8767 47 31.4667C47 32.0567 47.4 32.45 48 32.45Z" fill="#FF7C00"/>
<path d="M48 26.5501C48.6 26.5501 48.9999 26.1568 48.9999 25.5668C48.9999 24.9768 48.6 24.5835 48 24.5835C47.4999 24.5835 47 25.0752 47 25.5668C47 26.1568 47.4 26.5501 48 26.5501Z" fill="#FF7C00"/>
<path d="M52 26.5501C52.6 26.5501 52.9999 26.1568 52.9999 25.5668C52.9999 24.9768 52.6 24.5835 52 24.5835C51.4999 24.5835 51 25.0752 51 25.5668C51 26.1568 51.4 26.5501 52 26.5501Z" fill="#FF7C00"/>
<path d="M54.9999 0H44.9999H35H25H14.9999H4.99996C4.39996 0 4 0.393295 4 0.983295V58.0166C4 58.6066 4.39996 58.9999 4.99996 58.9999H14.9999H24.9999H34.9998H44.9999H54.9999C55.5999 58.9999 55.9998 58.6066 55.9998 58.0166V28.5166V0.983295C56 0.393295 55.5999 0 54.9999 0ZM53.9999 27.5333H45.9999V1.9667H53.9999V27.5333ZM33.9999 17.7H25.9998V1.9667H33.9999V17.7ZM23.9999 18.6833V38.35H15.9999V1.9667H23.9999V18.6833ZM5.99992 1.9667H14V39.3334V57.0334H5.99992V1.9667ZM15.9999 40.3167H23.9999V57.0334H15.9999V40.3167ZM26 39.3333V19.6667H34V57.0334H26V39.3333ZM35.9999 18.6833V1.9667H44V28.5167V57.0334H35.9999V18.6833ZM53.9999 57.0333H45.9999V29.5H53.9999V57.0333Z" fill="#FF7C00"/>
<path d="M32 20.6501C31.4 20.6501 31 21.0434 31 21.6334C31 22.2234 31.4 22.6167 32 22.6167C32.6 22.6167 32.9999 22.2234 32.9999 21.6334C32.9999 21.0434 32.6 20.6501 32 20.6501Z" fill="#FF7C00"/>
<path d="M28 20.6501C27.4 20.6501 27 21.0434 27 21.6334C27 22.2234 27.4 22.6167 28 22.6167C28.6 22.6167 28.9999 22.2234 28.9999 21.6334C28.9999 21.0434 28.6 20.6501 28 20.6501Z" fill="#FF7C00"/>
<path d="M28 16.7167C28.6 16.7167 28.9999 16.3234 28.9999 15.7334C28.9999 15.1434 28.6 14.75 28 14.75C27.4 14.75 27 15.2417 27 15.7333C27 16.3233 27.4 16.7167 28 16.7167Z" fill="#FF7C00"/>
<path d="M32 16.7167C32.6 16.7167 32.9999 16.3234 32.9999 15.7334C32.9999 15.1434 32.6 14.75 32 14.75C31.4 14.75 31 15.2417 31 15.7333C30.9999 16.3233 31.4 16.7167 32 16.7167Z" fill="#FF7C00"/>
<path d="M12 2.94995C11.4 2.94995 11 3.44166 11 3.93325C11 4.42495 11.4 4.91654 12 4.91654C12.6 4.91654 12.9999 4.52325 12.9999 3.93325C12.9999 3.34325 12.6 2.94995 12 2.94995Z" fill="#FF7C00"/>
<path d="M7.99996 2.94995C7.39996 2.94995 7 3.44166 7 3.93325C7 4.42495 7.39996 4.91654 7.99996 4.91654C8.59996 4.91654 8.99992 4.52325 8.99992 3.93325C8.99992 3.34325 8.59996 2.94995 7.99996 2.94995Z" fill="#FF7C00"/>
<path d="M12 54.0833C11.4 54.0833 11 54.4765 11 55.0665C11 55.6565 11.4 56.0498 12 56.0498C12.6 56.0498 12.9999 55.6565 12.9999 55.0665C12.9999 54.4765 12.6 54.0833 12 54.0833Z" fill="#FF7C00"/>
<path d="M7.99996 54.0833C7.39996 54.0833 7 54.4765 7 55.0665C7 55.6565 7.39996 56.0498 7.99996 56.0498C8.59996 56.0498 8.99992 55.6565 8.99992 55.0665C8.99992 54.4765 8.59996 54.0833 7.99996 54.0833Z" fill="#FF7C00"/>
<path d="M42 2.94995C41.4 2.94995 41 3.34325 41 3.93325C41 4.52325 41.4 4.91654 42 4.91654C42.6 4.91654 42.9999 4.52325 42.9999 3.93325C42.9999 3.34325 42.6 2.94995 42 2.94995Z" fill="#FF7C00"/>
<path d="M38 2.94995C37.4 2.94995 37 3.34325 37 3.93325C37 4.52325 37.4 4.91654 38 4.91654C38.6 4.91654 38.9999 4.52325 38.9999 3.93325C38.9999 3.34325 38.6 2.94995 38 2.94995Z" fill="#FF7C00"/>
<path d="M42 54.0833C41.4 54.0833 41 54.4765 41 55.0665C41 55.6565 41.4 56.0498 42 56.0498C42.6 56.0498 42.9999 55.6565 42.9999 55.0665C42.9999 54.4765 42.6 54.0833 42 54.0833Z" fill="#FF7C00"/>
<path d="M38 54.0833C37.4 54.0833 37 54.4765 37 55.0665C37 55.6565 37.4 56.0498 38 56.0498C38.6 56.0498 38.9999 55.6565 38.9999 55.0665C38.9999 54.4765 38.6 54.0833 38 54.0833Z" fill="#FF7C00"/>
</svg>
