<svg width="58" height="59" viewBox="0 0 58 59" fill="none" xmlns="http://www.w3.org/2000/svg">
<path d="M41.2202 30.4516C41.7761 30.4516 42.3137 30.617 42.7769 30.9311L49.3102 35.3621C50.0822 35.8844 50.9793 36.1613 51.9052 36.1613H58V34.2581H51.9061C51.3507 34.2581 50.8117 34.0926 50.3485 33.7785L47.7097 31.9887V0H12.1613V5.70968H0V59H35.5484V53.2903H47.7097V45.2843C47.7686 45.2699 47.8294 45.2653 47.8883 45.2509L52.24 44.1445C53.2056 43.8987 54.1991 43.7742 55.1936 43.7742H58V41.871H55.1936C54.0466 41.871 52.8996 42.0145 51.7864 42.2975L47.4347 43.4039C45.1978 43.9721 42.8171 43.8797 40.6319 43.1385L39.0555 42.6037C37.6203 42.1172 36.1258 41.871 34.6129 41.871H26.4498C26.4498 40.2972 27.7091 39.0161 29.2563 39.0161H39.5466C41.0941 39.0161 42.353 37.7351 42.353 36.1613C42.353 34.7013 41.2659 33.5081 39.875 33.3399L40.6428 30.4516H41.2202ZM40.0385 44.9437C41.4737 45.4312 42.9688 45.6774 44.4812 45.6774C44.9352 45.6774 45.3879 45.6375 45.8387 45.5928V51.3871H35.5484V48.2744C35.8768 47.8892 36.1312 47.4333 36.2678 46.9176L37.0338 44.0311C37.5157 44.131 37.9935 44.25 38.4626 44.4098L40.0385 44.9437ZM35.1592 43.796L34.4622 46.4204C34.2808 47.1039 33.6683 47.5806 32.9731 47.5806H32.6698C31.8197 47.5806 31.1281 46.8776 31.1281 46.0124C31.1281 45.8735 31.1459 45.7364 31.1816 45.6031L31.6671 43.7742H34.6129C34.7952 43.7742 34.977 43.7886 35.1592 43.796ZM29.7286 43.7742L29.375 45.1054C29.2964 45.4005 29.2572 45.7048 29.2572 46.0124C29.2572 47.2991 29.957 48.4114 30.9815 49.0109L30.6878 50.2041L32.5026 50.666L32.7936 49.4839H32.9731C33.2142 49.4839 33.4481 49.4495 33.6774 49.4002V57.0968H1.87097V7.6129H14.0323V1.90323H45.8387V30.7202L43.8152 29.3476C43.0437 28.8253 42.1466 28.5484 41.2202 28.5484H41.148L45.0416 13.8946C45.1202 13.5995 45.1595 13.2952 45.1595 12.9876C45.1595 11.0732 43.6284 9.51613 41.7469 9.51613H41.4436C39.9051 9.51613 38.5503 10.5714 38.1488 12.0824L35.5484 21.8708V5.70968H15.9032V7.6129H33.6774V28.5484H31.742C30.7239 28.5484 29.7651 28.8918 28.9635 29.5H19.6452V31.4032H26.9979L25.127 33.3064H19.6452V35.2097H23.2569L21.6938 36.7997C21.142 37.3601 20.8378 38.1063 20.8378 38.9009C20.8378 40.5388 22.1474 41.871 23.7585 41.871C24.0467 41.871 24.3244 41.8147 24.5939 41.733C24.593 41.7794 24.5797 41.8236 24.5797 41.871C24.5797 42.9206 25.4188 43.7742 26.4507 43.7742H29.7286ZM36.9347 37.1129H33.4372L37.3874 22.2449L40.5963 23.3326L36.9347 37.1129ZM29.7578 31.2871C30.2808 30.756 31.0039 30.4516 31.742 30.4516H33.2686L32.5053 33.3236C31.3218 33.3673 30.2123 33.8431 29.3704 34.6995L24.4994 39.6546C24.3039 39.8534 24.0334 39.9677 23.7575 39.9677C23.1783 39.9677 22.7079 39.4891 22.7079 38.9009C22.7079 38.6156 22.8175 38.348 23.0157 38.1463L29.7578 31.2871ZM30.6933 36.0451C31.0468 35.6855 31.4968 35.4401 31.9768 35.3124L31.4986 37.1129H29.6445L30.6933 36.0451ZM43.2351 13.3979L42.0895 17.7094L38.8806 16.6216L39.9545 12.5796C40.1367 11.8961 40.7488 11.4194 41.4436 11.4194H41.7469C42.5974 11.4194 43.2885 12.1224 43.2885 12.9876C43.2885 13.1265 43.2707 13.2636 43.2351 13.3979ZM38.3923 18.4621L41.6012 19.5499L41.0846 21.4921L37.8757 20.4044L38.3923 18.4621ZM39.5466 35.2097C40.0623 35.2097 40.4821 35.6372 40.4821 36.1613C40.4821 36.6854 40.0623 37.1129 39.5466 37.1129H38.8724L39.3785 35.2097H39.5466Z" fill="#FF7C00"/>
<path d="M28.0648 9.51611H3.74219V19.0322H28.0648V9.51611ZM26.1938 17.129H5.61316V11.4193H26.1938V17.129Z" fill="#FF7C00"/>
<path d="M7.48389 13.3228H9.35485V15.226H7.48389V13.3228Z" fill="#FF7C00"/>
<path d="M11.2261 13.3228H13.097V15.226H11.2261V13.3228Z" fill="#FF7C00"/>
<path d="M14.9678 13.3228H16.8387V15.226H14.9678V13.3228Z" fill="#FF7C00"/>
<path d="M18.71 13.3228H20.5809V15.226H18.71V13.3228Z" fill="#FF7C00"/>
<path d="M22.4517 13.3228H24.3226V15.226H22.4517V13.3228Z" fill="#FF7C00"/>
<path d="M14.968 30.4516H13.097V34.2581H5.61316V26.6452H11.2261V24.7419H3.74219V36.1613H14.968V30.4516Z" fill="#FF7C00"/>
<path d="M18.0486 21.2144L9.35514 30.0577L8.14559 28.8273L6.82275 30.1729L9.35514 32.7489L19.3714 22.56L18.0486 21.2144Z" fill="#FF7C00"/>
<path d="M13.097 50.4356H5.61316V42.8227H11.2261V40.9194H3.74219V52.3388H14.968V46.6291H13.097V50.4356Z" fill="#FF7C00"/>
<path d="M8.14559 45.0045L6.82275 46.3501L9.35514 48.9262L19.3714 38.7372L18.0486 37.3916L9.35514 46.2349L8.14559 45.0045Z" fill="#FF7C00"/>
<path d="M29.9355 52.3386H31.8065V54.2419H29.9355V52.3386Z" fill="#FF7C00"/>
<path d="M17.7739 52.3386H28.0642V54.2419H17.7739V52.3386Z" fill="#FF7C00"/>
<path d="M19.645 25.6936H31.8063V27.5968H19.645V25.6936Z" fill="#FF7C00"/>
</svg>
