<svg width="60" height="59" viewBox="0 0 60 59" fill="none" xmlns="http://www.w3.org/2000/svg">
<path d="M49 6.88333H43.994C41.847 2.50258 38.777 0 35.5 0C32.206 0 29.121 2.52913 26.973 6.95315C21.388 7.65033 17 13.9633 17 21.6333C16.9358 25.2472 17.9977 28.7939 20.043 31.7971C18.9046 33.3191 18.0665 35.0375 17.572 36.8632C17.341 37.7354 17.172 38.6263 17.001 39.4887C16.801 40.531 16.601 41.5252 16.312 42.4859C8.083 43.2077 0 45.963 0 50.6417C0 55.4069 9.028 59 21 59C32.972 59 42 55.4069 42 50.6417C42 46.5402 35.179 43.2352 25.3 42.4603C25.393 41.7936 25.518 41.121 25.644 40.4573L25.731 40.001C25.9606 38.7353 26.2906 37.4892 26.718 36.2742C27.1418 36.3434 27.5704 36.3799 28 36.3833H49C55.065 36.3833 60 29.7665 60 21.6333C60 13.5002 55.065 6.88333 49 6.88333ZM35.5 1.96667C37.78 1.96667 40.01 3.73667 41.751 6.88333H29.251C30.99 3.73667 33.22 1.96667 35.5 1.96667ZM28 8.85C32.963 8.85 37 14.5848 37 21.6333C37 28.6819 32.963 34.4167 28 34.4167C27.84 34.4167 27.68 34.4108 27.521 34.398C27.542 34.3567 27.563 34.3154 27.585 34.2741C28.1973 33.2281 29.113 32.3855 30.215 31.8541C30.9391 31.4458 31.5826 30.9129 32.115 30.2808C32.1478 30.25 32.1785 30.2171 32.207 30.1824C32.3843 29.9727 32.554 29.7527 32.716 29.5226C33.9139 27.7503 34.6536 25.7173 34.871 23.6V23.5843C34.9578 22.9375 35.0009 22.2857 35 21.6333C35 15.163 31.381 10.8167 28 10.8167C24.619 10.8167 21 15.163 21 21.6333C20.9579 24.1302 21.5808 26.5944 22.807 28.7812C22.6943 28.8815 22.583 28.9821 22.473 29.0831C22.381 29.1676 22.293 29.2522 22.203 29.3377C21.96 29.5698 21.726 29.8039 21.503 30.0428C21.453 30.0949 21.397 30.1411 21.348 30.1982C19.7737 27.6122 18.9608 24.647 19 21.6333C19 14.5848 23.037 8.85 28 8.85ZM24.394 27.5333C23.4447 25.7087 22.966 23.6826 23 21.6333C23 16.1503 25.912 12.7833 28 12.7833C30.088 12.7833 33 16.1503 33 21.6333C33.0016 22.2107 32.9639 22.7876 32.887 23.3601C32.863 23.5656 32.812 23.7583 32.779 23.9589C32.464 24.0632 32.157 24.1654 31.818 24.2736C29.1915 24.989 26.689 26.0878 24.394 27.5333ZM40 50.6417C40 53.6644 32.2 57.0333 21 57.0333C9.8 57.0333 2 53.6644 2 50.6417C2 48.2689 7.007 45.4497 15.481 44.5371C15.419 44.6502 15.365 44.7712 15.299 44.8803C14.5037 46.4137 12.852 47.3298 11.106 47.2059C10.8418 47.1751 10.576 47.2504 10.369 47.4147C10.162 47.5791 10.0311 47.8186 10.006 48.0791C9.94767 48.6189 10.3451 49.103 10.894 49.1608C11.1162 49.1847 11.3395 49.1965 11.563 49.1962C13.8608 49.1532 15.9525 47.8832 17.021 45.8823C17.4291 45.1997 17.7626 44.4765 18.016 43.7249V43.718C18.4239 42.4561 18.7403 41.1673 18.963 39.8614C19.131 38.9921 19.29 38.172 19.505 37.3627C19.9904 35.5557 20.858 33.8696 22.051 32.4146C22.8506 31.4311 23.7525 30.5323 24.742 29.733C26.987 28.1207 29.5154 26.9296 32.2 26.2196C32.178 26.2776 32.165 26.3435 32.142 26.4005C32.119 26.4576 32.086 26.5126 32.061 26.5726C31.9041 26.964 31.7224 27.3453 31.517 27.7143C31.423 27.8785 31.307 28.0162 31.204 28.1705C31.052 28.4006 30.904 28.6416 30.74 28.8481L30.728 28.8599L30.717 28.8717C30.6967 28.8907 30.6773 28.9107 30.659 28.9316C30.2671 29.4152 29.7873 29.823 29.244 30.1343C27.7956 30.8488 26.5994 31.9753 25.811 33.3675C25.58 33.8021 25.36 34.2751 25.154 34.7736C24.5253 36.346 24.0609 37.9773 23.768 39.6421L23.682 40.0944C23.1106 42.2236 23.0357 44.4523 23.463 46.6139C23.8779 48.2317 25.0866 49.5391 26.685 50.0989C27.2097 50.2705 27.7765 49.9914 27.951 49.4754C28.1255 48.9595 27.8417 48.4021 27.317 48.2305C26.3571 47.8717 25.6376 47.0723 25.392 46.0918C25.2476 45.5458 25.173 44.9842 25.17 44.4201C34.351 45.1527 40 48.1578 40 50.6417ZM49 34.4167H33.464C36.767 31.8689 39 27.0987 39 21.6333C39 16.168 36.767 11.3978 33.464 8.85H42.693C43.9863 12.0553 44.7353 15.4477 44.91 18.8918C43.5404 19.409 42.7493 20.8216 43.0369 22.2363C43.3246 23.651 44.6072 24.6558 46.0738 24.6154C47.5403 24.5751 48.7638 23.5012 48.9705 22.0729C49.1771 20.6446 48.3069 19.2778 46.91 18.8367C46.7352 15.4255 46.0419 12.0593 44.853 8.85H49C53.963 8.85 58 14.5848 58 21.6333C58 28.6819 53.963 34.4167 49 34.4167ZM46 20.65C46.5523 20.65 47 21.0903 47 21.6333C47 22.1764 46.5523 22.6167 46 22.6167C45.4477 22.6167 45 22.1764 45 21.6333C45 21.0903 45.4477 20.65 46 20.65Z" fill="#FF7C00"/>
<path d="M21.89 53.1059C13.384 54.0351 8.56003 51.2995 8.51203 51.2719C8.03884 51.0012 7.43224 51.155 7.15111 51.6169C6.86997 52.0788 7.01881 52.6772 7.48503 52.9593C7.67003 53.0685 11.49 55.2682 18.373 55.2682C19.6216 55.267 20.8692 55.1978 22.11 55.0607C22.4652 55.0221 22.7723 54.8001 22.9159 54.4783C23.0594 54.1566 23.0175 53.784 22.8059 53.5009C22.5943 53.2178 22.2452 53.0672 21.89 53.1059Z" fill="#FF7C00"/>
</svg>
