<?xml version="1.0" encoding="utf-8"?>
<!-- Generator: Adobe Illustrator 23.0.2, SVG Export Plug-In . SVG Version: 6.00 Build 0)  -->
<svg version="1.1" id="Слой_1" xmlns="http://www.w3.org/2000/svg" xmlns:xlink="http://www.w3.org/1999/xlink" x="0px" y="0px"
	 viewBox="0 0 60 59" style="enable-background:new 0 0 60 59;" xml:space="preserve">
<style type="text/css">
	.st0{fill:#FF7C00;}
</style>
<path class="st0" d="M49,6.9h-5C41.8,2.5,38.8,0,35.5,0c-3.3,0-6.4,2.5-8.5,7c-5.6,0.7-10,7-10,14.7c-0.1,3.6,1,7.2,3,10.2
	c-1.1,1.5-2,3.2-2.5,5.1c-0.2,0.9-0.4,1.8-0.6,2.6c-0.2,1-0.4,2-0.7,3C8.1,43.2,0,46,0,50.6C0,55.4,9,59,21,59s21-3.6,21-8.4
	c0-4.1-6.8-7.4-16.7-8.2c0.1-0.7,0.2-1.3,0.3-2l0.1-0.5c0.2-1.3,0.6-2.5,1-3.7c0.4,0.1,0.9,0.1,1.3,0.1h21c6.1,0,11-6.6,11-14.8
	C60,13.5,55.1,6.9,49,6.9z M35.5,2c2.3,0,4.5,1.8,6.3,4.9H29.3C31,3.7,33.2,2,35.5,2z M28,8.9c5,0,9,5.7,9,12.8c0,7-4,12.8-9,12.8
	c-0.2,0-0.3,0-0.5,0c0,0,0-0.1,0.1-0.1c0.6-1,1.5-1.9,2.6-2.4c0.7-0.4,1.4-0.9,1.9-1.6c0,0,0.1-0.1,0.1-0.1c0.2-0.2,0.3-0.4,0.5-0.7
	c1.2-1.8,1.9-3.8,2.2-5.9v0c0.1-0.6,0.1-1.3,0.1-2c0-6.5-3.6-10.8-7-10.8s-7,4.3-7,10.8c0,2.5,0.6,5,1.8,7.1
	c-0.1,0.1-0.2,0.2-0.3,0.3c-0.1,0.1-0.2,0.2-0.3,0.3c-0.2,0.2-0.5,0.5-0.7,0.7c-0.1,0.1-0.1,0.1-0.2,0.2c-1.6-2.6-2.4-5.6-2.3-8.6
	C19,14.6,23,8.9,28,8.9z M24.4,27.5c-0.9-1.8-1.4-3.9-1.4-5.9c0-5.5,2.9-8.9,5-8.9s5,3.4,5,8.9c0,0.6,0,1.2-0.1,1.7
	c0,0.2-0.1,0.4-0.1,0.6c-0.3,0.1-0.6,0.2-1,0.3C29.2,25,26.7,26.1,24.4,27.5z M40,50.6c0,3-7.8,6.4-19,6.4S2,53.7,2,50.6
	c0-2.4,5-5.2,13.5-6.1c-0.1,0.1-0.1,0.2-0.2,0.3c-0.8,1.5-2.4,2.4-4.2,2.3c-0.3,0-0.5,0-0.7,0.2c-0.2,0.2-0.3,0.4-0.4,0.7
	c-0.1,0.5,0.3,1,0.9,1.1c0.2,0,0.4,0,0.7,0c2.3,0,4.4-1.3,5.5-3.3c0.4-0.7,0.7-1.4,1-2.2v0c0.4-1.3,0.7-2.6,0.9-3.9
	c0.2-0.9,0.3-1.7,0.5-2.5c0.5-1.8,1.4-3.5,2.5-4.9c0.8-1,1.7-1.9,2.7-2.7c2.2-1.6,4.8-2.8,7.5-3.5c0,0.1,0,0.1-0.1,0.2
	c0,0.1-0.1,0.1-0.1,0.2c-0.2,0.4-0.3,0.8-0.5,1.1c-0.1,0.2-0.2,0.3-0.3,0.5c-0.2,0.2-0.3,0.5-0.5,0.7l0,0l0,0c0,0,0,0-0.1,0.1
	c-0.4,0.5-0.9,0.9-1.4,1.2c-1.4,0.7-2.6,1.8-3.4,3.2c-0.2,0.4-0.5,0.9-0.7,1.4c-0.6,1.6-1.1,3.2-1.4,4.9l-0.1,0.5
	c-0.6,2.1-0.6,4.4-0.2,6.5c0.4,1.6,1.6,2.9,3.2,3.5c0.5,0.2,1.1-0.1,1.3-0.6c0.2-0.5-0.1-1.1-0.6-1.2c-1-0.4-1.7-1.2-1.9-2.1
	c-0.1-0.5-0.2-1.1-0.2-1.7C34.4,45.2,40,48.2,40,50.6z M49,34.4H33.5c3.3-2.5,5.5-7.3,5.5-12.8c0-5.5-2.2-10.2-5.5-12.8h9.2
	c1.3,3.2,2,6.6,2.2,10c-1.4,0.5-2.2,1.9-1.9,3.3c0.3,1.4,1.6,2.4,3,2.4c1.5,0,2.7-1.1,2.9-2.5c0.2-1.4-0.7-2.8-2.1-3.2
	c-0.2-3.4-0.9-6.8-2.1-10H49c5,0,9,5.7,9,12.8C58,28.7,54,34.4,49,34.4z M46,20.6c0.6,0,1,0.4,1,1c0,0.5-0.4,1-1,1s-1-0.4-1-1
	C45,21.1,45.4,20.6,46,20.6z"/>
<path class="st0" d="M21.9,53.1C13.4,54,8.6,51.3,8.5,51.3C8,51,7.4,51.2,7.2,51.6C6.9,52.1,7,52.7,7.5,53c0.2,0.1,4,2.3,10.9,2.3
	c1.2,0,2.5-0.1,3.7-0.2c0.4,0,0.7-0.3,0.8-0.6c0.1-0.3,0.1-0.7-0.1-1C22.6,53.2,22.2,53.1,21.9,53.1z"/>
</svg>
