<svg width="50" height="50" viewBox="0 0 50 50" fill="none" xmlns="http://www.w3.org/2000/svg">
<g clip-path="url(#clip0)">
<path d="M17.3634 20.2073C17.7452 19.8255 17.7452 19.2071 17.3634 18.8264C16.9826 18.4446 16.3643 18.4446 15.9824 18.8264C15.6006 19.2071 15.6006 19.8255 15.9824 20.2073C16.3643 20.5881 16.9826 20.5881 17.3634 20.2073Z" fill="#FF7C00"/>
<path d="M27.0315 21.5884C28.1736 20.4463 28.1736 18.5878 27.0315 17.4457C25.8867 16.3009 24.0327 16.3005 22.8879 17.4457C21.7428 18.5904 21.7428 20.4432 22.8879 21.5884C24.0301 22.7305 25.889 22.7309 27.0315 21.5884ZM24.2689 18.8266C24.6507 18.4451 25.2687 18.4451 25.6505 18.8266C26.0309 19.2073 26.0309 19.8264 25.6505 20.2071C25.2694 20.5878 24.6496 20.5882 24.2689 20.2071C23.8878 19.8264 23.8862 19.2092 24.2689 18.8266Z" fill="#FF7C00"/>
<path d="M22.8879 28.4932C21.7428 29.6384 21.7428 31.492 22.8879 32.6371C24.0327 33.7819 25.8863 33.7823 27.0315 32.6371C28.174 31.4946 28.174 29.6357 27.0315 28.4932C25.8867 27.3488 24.0327 27.3484 22.8879 28.4932ZM25.6505 31.2562C25.2687 31.6377 24.6503 31.6377 24.2689 31.2562C23.8878 30.8751 23.8862 30.2571 24.2689 29.8745C24.6507 29.4927 25.2687 29.493 25.6505 29.8745C26.0312 30.2552 26.0312 30.8751 25.6505 31.2562Z" fill="#FF7C00"/>
<path d="M17.0964 26.6133C17.2021 27.1428 17.717 27.485 18.2454 27.3793L32.0557 24.6167C32.5844 24.5111 32.9274 23.9965 32.8217 23.4677C32.716 22.9386 32.2014 22.5961 31.6727 22.7018L17.8624 25.4644C17.3333 25.57 16.9903 26.0846 17.0964 26.6133Z" fill="#FF7C00"/>
<path d="M29.6882 5.52441C29.4292 5.52441 29.1808 5.62703 28.9977 5.81013L18.745 16.0629C18.3635 16.4444 18.3635 17.0627 18.745 17.4442C19.1264 17.8257 19.7448 17.8257 20.1259 17.4442L29.6882 7.8819L42.1172 20.3113L20.1934 42.2352L7.76398 29.8061L14.6018 22.9683C14.9833 22.5872 14.9833 21.9688 14.6018 21.5873C14.2204 21.2063 13.602 21.2063 13.2205 21.5873L5.6926 29.1156C5.31113 29.4967 5.31113 30.1151 5.6926 30.4966L19.5029 44.3069C19.8844 44.6884 20.5024 44.6884 20.8839 44.3069L44.189 21.0018C44.5705 20.6203 44.5705 20.002 44.189 19.6205L30.3786 5.81013C30.1955 5.62703 29.9472 5.52441 29.6882 5.52441Z" fill="#FF7C00"/>
<path d="M48.3321 0.286489L44.1406 4.4777C41.695 2.631 38.3178 2.60087 35.8928 4.4014L32.4596 0.868611C32.4561 0.865178 32.4531 0.862126 32.4497 0.858693C31.3106 -0.280376 29.4582 -0.292583 28.3054 0.860219L0.858248 28.4256C-0.286543 29.5704 -0.286924 31.4243 0.858248 32.5695L4.73169 36.4426C3.86652 38.9187 4.4906 41.7259 6.38231 43.6169C8.27364 45.509 11.0809 46.1327 13.557 45.2683L17.4304 49.1413C18.5752 50.2861 20.4299 50.2857 21.5724 49.1428L49.1409 21.6927C50.286 20.5475 50.286 18.6947 49.1409 17.5499C49.1374 17.5465 49.1344 17.5434 49.1309 17.54L45.5985 14.1075C47.3926 11.6989 47.3857 8.32024 45.5219 5.859L49.7131 1.66779C50.0945 1.28632 50.0945 0.667958 49.7131 0.286489C49.3316 -0.0949812 48.7136 -0.0949812 48.3321 0.286489ZM43.5684 13.4766C43.3837 13.6616 43.2807 13.9126 43.2823 14.1743C43.2842 14.4356 43.391 14.6854 43.5783 14.8674L47.7638 18.935C48.1426 19.318 48.1384 19.9329 47.7611 20.3098L20.193 47.76C19.8119 48.1411 19.1921 48.1411 18.8114 47.76L14.4801 43.4292C14.2932 43.2419 14.043 43.1431 13.7897 43.1431C13.6493 43.1431 13.5078 43.1732 13.375 43.2354C11.4971 44.1166 9.24181 43.7149 7.76361 42.2356C6.28427 40.7574 5.88258 38.5025 6.76378 36.6245C6.93849 36.2518 6.86144 35.8101 6.57037 35.519L2.23955 31.1882C1.85846 30.8071 1.85846 30.1876 2.24069 29.805L29.6882 2.23961C30.0681 1.86005 30.6823 1.85776 31.0645 2.23542L35.1318 6.4209C35.4965 6.79627 36.1209 6.83289 36.523 6.4312C38.1946 4.75884 40.8122 4.58031 42.7406 5.87769L41.3081 7.31011C40.2191 6.79131 38.874 6.98166 37.9737 7.88193C36.8316 9.02443 36.8316 10.8833 37.9737 12.0255C39.1185 13.1702 40.9725 13.1706 42.1176 12.0255C43.0385 11.1046 43.1999 9.7538 42.6906 8.68989L44.1226 7.25785C45.4101 9.16367 45.2617 11.7836 43.5684 13.4766ZM40.7363 9.26285C41.1174 9.64394 41.1189 10.2619 40.7363 10.6445C40.3549 11.026 39.7365 11.026 39.355 10.6445C38.9739 10.2634 38.9739 9.64356 39.3546 9.26285C39.7357 8.88253 40.3556 8.88176 40.7363 9.26285Z" fill="#FF7C00"/>
</g>
<defs>
<clipPath id="clip0">
<rect width="50" height="50" fill="white"/>
</clipPath>
</defs>
</svg>
