<svg width="50" height="50" viewBox="0 0 50 50" fill="none" xmlns="http://www.w3.org/2000/svg">
<g clip-path="url(#clip0)">
<path d="M38.2493 10.291C38.506 10.291 38.7578 10.1865 38.9393 10.0049C39.1213 9.82333 39.2258 9.57156 39.2258 9.31445C39.2258 9.05772 39.1213 8.80595 38.9393 8.62399C38.7578 8.44241 38.506 8.33789 38.2493 8.33789C37.9914 8.33789 37.7404 8.44241 37.5577 8.62399C37.3761 8.80595 37.2727 9.05772 37.2727 9.31445C37.2727 9.57156 37.3761 9.82333 37.5577 10.0049C37.7404 10.1865 37.9914 10.291 38.2493 10.291Z" fill="#FF7C00"/>
<path d="M49.4827 18.8381L41.4749 14.5679C41.1724 14.4066 40.8073 14.4157 40.5132 14.5924C40.2191 14.7686 40.0391 15.0867 40.0391 15.4297V18.0725L33.4671 14.5679C33.1646 14.4066 32.7995 14.4157 32.5054 14.5924C32.2113 14.769 32.0312 15.0867 32.0312 15.4297V18.0725L25.4593 14.5679C25.1568 14.4066 24.7917 14.4157 24.4976 14.5924C24.2035 14.7686 24.0234 15.0867 24.0234 15.4297V26.1719H8.98438V15.4297C8.98438 14.8903 8.54721 14.4531 8.00781 14.4531H6.60744V13.0703C6.60744 12.8365 6.79741 12.6465 7.03125 12.6465C7.57065 12.6465 8.00781 12.2093 8.00781 11.6699C8.00781 11.1305 7.57065 10.6934 7.03125 10.6934C5.72052 10.6934 4.65431 11.7596 4.65431 13.0703V14.4531H2.92969V9.85947C2.92969 7.99942 4.44298 6.48613 6.30264 6.48613H7.87964C7.82013 6.75392 7.78809 7.0282 7.78809 7.30438C7.78809 9.36165 9.46198 11.0352 11.5189 11.0352H15.2061C15.7455 11.0352 16.1827 10.598 16.1827 10.0586C16.1827 9.5192 15.7455 9.08203 15.2061 9.08203H11.5189C10.5389 9.08203 9.74121 8.28438 9.74121 7.30438C9.74121 6.80962 9.94606 6.32515 10.3027 5.97496C10.6461 5.6385 11.0897 5.45998 11.5547 5.46684C11.813 5.4718 12.0609 5.53093 12.2913 5.64194C12.5374 5.76057 12.8216 5.77087 13.0756 5.67055C13.3293 5.56984 13.5296 5.36766 13.6276 5.11284C14.3539 3.22304 16.2025 1.95312 18.2274 1.95312C20.2713 1.95312 22.0921 3.23524 22.818 5.09262C22.5197 5.25703 22.2378 5.45158 21.981 5.67474C21.5515 6.04782 21.1948 6.4888 20.9206 6.98547C20.6596 7.45735 20.8309 8.05168 21.3032 8.31223C21.4527 8.395 21.6148 8.4343 21.7747 8.4343C22.1184 8.4343 22.4522 8.25233 22.6299 7.92999C22.7936 7.63435 23.0064 7.37152 23.2624 7.14874C23.5703 6.88133 23.9368 6.68106 24.3256 6.56548C24.5892 6.48727 24.8638 6.44646 25.1427 6.44646C26.7239 6.44646 28.0106 7.73315 28.0106 9.31435C28.0106 9.85374 28.4477 10.2909 28.9871 10.2909H34.3143C34.8537 10.2909 35.2909 9.85374 35.2909 9.31435C35.2909 8.77495 34.8537 8.33778 34.3143 8.33778H29.8645C29.4117 6.14586 27.4666 4.49333 25.1427 4.49333C24.9905 4.49333 24.839 4.50058 24.6883 4.51469C23.7091 1.84975 21.1288 0 18.2274 0C15.7108 0 13.3896 1.40457 12.1944 3.57399C11.9972 3.53813 11.7962 3.51791 11.5925 3.5141C10.6205 3.49464 9.70001 3.85742 8.98628 4.533H6.30264C3.36609 4.533 0.976562 6.92253 0.976562 9.85947V14.4531C0.437164 14.4531 0 14.8903 0 15.4297V49.0234C0 49.5628 0.437164 50 0.976562 50H49.0234C49.5628 50 50 49.5628 50 49.0234V19.6999C50 19.339 49.8013 19.0079 49.4827 18.8381ZM1.95312 20.3125H7.03125V44.1406H1.95312V20.3125ZM7.03125 18.3594H1.95312V16.4062H7.03125V18.3594ZM1.95312 46.0938H7.03125V48.0469H1.95312V46.0938ZM25 48.0469H8.98438V32.0312H17.7734C18.3128 32.0312 18.75 31.5941 18.75 31.0547C18.75 30.5153 18.3128 30.0781 17.7734 30.0781H8.98438V28.125H38.2812V48.0469H25ZM48.0469 48.0469H40.2344V27.1484C40.2344 26.609 39.7972 26.1719 39.2578 26.1719H25.9766V17.057L32.5485 20.5616C32.851 20.723 33.2161 20.7134 33.5102 20.5372C33.8043 20.3606 33.9844 20.0428 33.9844 19.6999V17.057L40.5563 20.5612C40.8588 20.723 41.2239 20.7134 41.518 20.5372C41.8121 20.3606 41.9922 20.0428 41.9922 19.6995V17.057L48.0469 20.2854V48.0469Z" fill="#FF7C00"/>
<path d="M16.6016 34.7656H11.9141C11.3747 34.7656 10.9375 35.2028 10.9375 35.7422V40.4297C10.9375 40.9691 11.3747 41.4062 11.9141 41.4062H16.6016C17.141 41.4062 17.5781 40.9691 17.5781 40.4297V35.7422C17.5781 35.2028 17.141 34.7656 16.6016 34.7656ZM15.625 39.4531H12.8906V36.7188H15.625V39.4531Z" fill="#FF7C00"/>
<path d="M25.9766 34.7656H21.2891C20.7497 34.7656 20.3125 35.2028 20.3125 35.7422V40.4297C20.3125 40.9691 20.7497 41.4062 21.2891 41.4062H25.9766C26.516 41.4062 26.9531 40.9691 26.9531 40.4297V35.7422C26.9531 35.2028 26.516 34.7656 25.9766 34.7656ZM25 39.4531H22.2656V36.7188H25V39.4531Z" fill="#FF7C00"/>
<path d="M35.3516 34.7656H30.6641C30.1247 34.7656 29.6875 35.2028 29.6875 35.7422V40.4297C29.6875 40.9691 30.1247 41.4062 30.6641 41.4062H35.3516C35.891 41.4062 36.3281 40.9691 36.3281 40.4297V35.7422C36.3281 35.2028 35.891 34.7656 35.3516 34.7656ZM34.375 39.4531H31.6406V36.7188H34.375V39.4531Z" fill="#FF7C00"/>
<path d="M21.4036 32.0312C21.6603 32.0312 21.9121 31.9267 22.0936 31.7451C22.2756 31.5636 22.3801 31.3114 22.3801 31.0547C22.3801 30.798 22.2756 30.5458 22.0936 30.3642C21.9121 30.1826 21.6603 30.0781 21.4036 30.0781C21.1457 30.0781 20.8947 30.1826 20.7131 30.3642C20.5304 30.5458 20.427 30.798 20.427 31.0547C20.427 31.3114 20.5304 31.5636 20.7131 31.7451C20.8947 31.9267 21.1465 32.0312 21.4036 32.0312Z" fill="#FF7C00"/>
</g>
<defs>
<clipPath id="clip0">
<rect width="50" height="50" fill="white"/>
</clipPath>
</defs>
</svg>
