<svg width="50" height="50" viewBox="0 0 50 50" fill="none" xmlns="http://www.w3.org/2000/svg">
<path d="M19.1406 5.85938C18.6016 5.85938 18.1641 6.29688 18.1641 6.83594C18.1641 7.375 18.6016 7.8125 19.1406 7.8125C19.6797 7.8125 20.1172 7.375 20.1172 6.83594C20.1172 6.29688 19.6797 5.85938 19.1406 5.85938Z" fill="#FF7C00"/>
<path d="M46.0938 14.2578C43.9398 14.2578 42.1875 16.0102 42.1875 18.1641V25.124C40.8902 24.7899 39.4587 25.135 38.4491 26.1444L31.8998 32.6938C30.977 33.6153 30.4688 34.8419 30.4688 36.1475V41.8945H29.4922C28.9529 41.8945 28.5156 42.3317 28.5156 42.8711V49.0234C28.5156 49.5628 28.9529 50 29.4922 50H43.1641C43.7033 50 44.1406 49.5628 44.1406 49.0234V42.8711C44.1406 42.3317 43.7033 41.8945 43.1641 41.8945H42.1875V41.4336C42.1875 41.1769 42.2918 40.9252 42.4738 40.7433L48.5695 34.6476C49.492 33.725 50 32.4986 50 31.1943V18.1641C50 16.0102 48.2477 14.2578 46.0938 14.2578ZM42.1875 48.0469H30.4688V43.8477H42.1875V48.0469ZM48.0469 31.1943C48.0469 31.977 47.742 32.7129 47.1884 33.2665L41.0927 39.3622C40.5472 39.9077 40.2344 40.6627 40.2344 41.4336V41.8945H32.4219V36.1475C32.4219 35.3641 32.7266 34.6283 33.2804 34.0753L39.8302 27.5255C40.5632 26.7924 41.7407 26.7595 42.5108 27.4505C42.5164 27.4554 42.522 27.4604 42.5276 27.4651C42.5499 27.4842 42.5708 27.5047 42.5919 27.5258C42.9608 27.8944 43.1641 28.3847 43.1641 28.9062C43.1641 29.4278 42.9608 29.9181 42.5917 30.287L37.7392 35.1396C37.3578 35.5209 37.3578 36.1393 37.7392 36.5207C38.1206 36.9021 38.7388 36.9021 39.1203 36.5207L43.9727 31.6685C44.7106 30.9308 45.1172 29.9499 45.1172 28.9062C45.1172 27.9453 44.7717 27.0379 44.1406 26.3242V18.1641C44.1406 17.0871 45.0168 16.2109 46.0938 16.2109C47.1707 16.2109 48.0469 17.0871 48.0469 18.1641V31.1943Z" fill="#FF7C00"/>
<path d="M20.5078 41.8945H19.5312V36.1475C19.5312 34.8419 19.023 33.6153 18.1008 32.6942L11.551 26.1444C10.5413 25.1348 9.10977 24.7898 7.8125 25.124V18.1641C7.8125 16.0102 6.06016 14.2578 3.90625 14.2578C1.75234 14.2578 0 16.0102 0 18.1641V31.1943C0 32.4986 0.508008 33.725 1.43047 34.6476L7.52617 40.7432C7.7082 40.9252 7.8125 41.1768 7.8125 41.4336V41.8945H6.83594C6.29668 41.8945 5.85938 42.3317 5.85938 42.8711V49.0234C5.85938 49.5628 6.29668 50 6.83594 50H20.5078C21.0471 50 21.4844 49.5628 21.4844 49.0234V42.8711C21.4844 42.3317 21.0471 41.8945 20.5078 41.8945ZM2.81162 33.2666C2.25801 32.7129 1.95312 31.977 1.95312 31.1943V18.1641C1.95312 17.0871 2.8293 16.2109 3.90625 16.2109C4.9832 16.2109 5.85938 17.0871 5.85938 18.1641V26.3241C5.22832 27.0378 4.88281 27.9451 4.88281 28.9062C4.88281 29.9499 5.28936 30.9308 6.02725 31.6681L10.9101 36.5509C11.2915 36.9322 11.9097 36.9322 12.2912 36.5509C12.6726 36.1695 12.6726 35.5512 12.2912 35.1697L7.40811 30.2866C7.03916 29.9181 6.83594 29.4278 6.83594 28.9062C6.83594 28.3847 7.03916 27.8944 7.40781 27.5259C7.4291 27.5047 7.4501 27.4842 7.47227 27.4651L7.48906 27.4505C8.25908 26.7595 9.43672 26.7925 10.1697 27.5255L16.72 34.0757C17.2733 34.6283 17.578 35.364 17.578 36.1474V41.8945H9.76553V41.4336C9.76562 40.6627 9.45283 39.9077 8.90732 39.3622L2.81162 33.2666ZM19.5312 48.0469H7.8125V43.8477H19.5312V48.0469Z" fill="#FF7C00"/>
<path d="M25 0C16.9229 0 10.3516 6.57129 10.3516 14.6484C10.3516 22.7256 16.9229 29.2969 25 29.2969C33.0771 29.2969 39.6484 22.7256 39.6484 14.6484C39.6484 6.57129 33.0771 0 25 0ZM25 27.3438C17.9997 27.3438 12.3047 21.6486 12.3047 14.6484C12.3047 7.64824 17.9997 1.95312 25 1.95312C32.0003 1.95312 37.6953 7.64824 37.6953 14.6484C37.6953 21.6486 32.0003 27.3438 25 27.3438Z" fill="#FF7C00"/>
<path d="M31.7436 6.28591C29.2024 4.23415 25.8767 3.46032 22.6204 4.16237C22.0932 4.27605 21.7579 4.79558 21.8716 5.32282C21.9853 5.84997 22.5049 6.18493 23.032 6.07155C25.7087 5.49441 28.4368 6.12634 30.5167 7.80544C32.5963 9.48464 33.7891 11.9787 33.7891 14.6483C33.7891 19.4946 29.8463 23.4374 25 23.4374C20.1537 23.4374 16.2109 19.4946 16.2109 14.6483C16.2109 13.2007 16.5703 11.7657 17.2502 10.4987C17.5052 10.0235 17.3267 9.43152 16.8515 9.17644C16.3762 8.92136 15.7841 9.09997 15.5292 9.57517C14.6975 11.1253 14.2578 12.8795 14.2578 14.6483C14.2578 20.5716 19.0768 25.3905 25 25.3905C30.9232 25.3905 35.7422 20.5716 35.7422 14.6483C35.7422 11.3855 34.2848 8.33757 31.7436 6.28591Z" fill="#FF7C00"/>
<path d="M20 11.7596L21.706 11.1346H22.8185V17.8654H21.5391V12.5385L20.3152 12.8942L20 11.7596Z" fill="#FF7C00"/>
<path d="M26.404 18C25.5943 18 24.9576 17.6827 24.4941 17.0481C24.0367 16.4006 23.808 15.5513 23.808 14.5C23.808 13.4487 24.0367 12.6026 24.4941 11.9615C24.9576 11.3205 25.5943 11 26.404 11C27.2261 11 27.8627 11.3205 28.3139 11.9615C28.7713 12.6026 29 13.4487 29 14.5C29 15.5513 28.7713 16.4006 28.3139 17.0481C27.8627 17.6827 27.2261 18 26.404 18ZM27.7298 14.5C27.7298 13.7821 27.6155 13.234 27.3868 12.8558C27.1642 12.4776 26.8367 12.2885 26.404 12.2885C25.9713 12.2885 25.6437 12.4776 25.4212 12.8558C25.1987 13.234 25.0874 13.7821 25.0874 14.5C25.0874 15.2179 25.1987 15.766 25.4212 16.1442C25.6437 16.516 25.9713 16.7019 26.404 16.7019C26.8367 16.7019 27.1642 16.5128 27.3868 16.1346C27.6155 15.7564 27.7298 15.2115 27.7298 14.5Z" fill="#FF7C00"/>
</svg>
