<svg width="50" height="50" viewBox="0 0 50 50" fill="none" xmlns="http://www.w3.org/2000/svg">
<g clip-path="url(#clip0)">
<path d="M39.687 3.45572H33.4522C33.1133 2.45248 32.1639 1.72786 31.0477 1.72786H28.411C27.6108 0.651728 26.343 0 25.0002 0C23.6573 0 22.3896 0.651728 21.5894 1.72786H18.9527C17.8365 1.72786 16.887 2.45248 16.5481 3.45572H10.3133C8.43765 3.45572 6.91162 4.98175 6.91162 6.85745V46.5983C6.91162 48.474 8.43765 50 10.3133 50H39.687C41.5627 50 43.0887 48.474 43.0887 46.5983V6.85745C43.0887 4.98175 41.5627 3.45572 39.687 3.45572ZM16.5481 8.53132C16.887 9.53456 17.8365 10.2592 18.9527 10.2592H31.0477C32.1639 10.2592 33.1133 9.53456 33.4522 8.53132H38.0131V44.9244H11.9872V8.53132H16.5481ZM18.9527 3.34773H22.0237C22.3121 3.34773 22.5787 3.19438 22.7237 2.94514C23.2068 2.11533 24.0577 1.61987 25.0002 1.61987C25.9426 1.61987 26.7936 2.11533 27.2765 2.94514C27.4217 3.19438 27.6883 3.34773 27.9765 3.34773H31.0477C31.5538 3.34773 31.9656 3.7595 31.9656 4.26566V7.71933C31.9656 7.72009 31.9655 7.72073 31.9655 7.72138C31.9655 7.72171 31.9655 7.72203 31.9655 7.72246C31.965 8.22808 31.5534 8.63931 31.0476 8.63931H18.9525C18.4471 8.63931 18.0359 8.22862 18.0347 7.72343C18.0347 7.72268 18.0348 7.72203 18.0348 7.72138C18.0348 7.71998 18.0346 7.71857 18.0346 7.71717V4.26566C18.0347 3.7595 18.4465 3.34773 18.9527 3.34773ZM41.4689 46.5983C41.4689 47.5808 40.6695 48.3801 39.687 48.3801H10.3133C9.33084 48.3801 8.53149 47.5808 8.53149 46.5983V6.85745C8.53149 5.87495 9.33084 5.07559 10.3133 5.07559H16.4149V6.91145H11.1773C10.7299 6.91145 10.3673 7.27397 10.3673 7.72138V45.7343C10.3673 46.1817 10.7299 46.5443 11.1773 46.5443H38.8231C39.2705 46.5443 39.633 46.1817 39.633 45.7343V7.72138C39.633 7.27397 39.2705 6.91145 38.8231 6.91145H33.5855V5.07559H39.687C40.6695 5.07559 41.4689 5.87495 41.4689 6.85745V46.5983Z" fill="#FF7C00"/>
<path d="M24.9999 6.80379C25.4473 6.80379 25.8098 6.44126 25.8098 5.99385V4.26599C25.8098 3.81858 25.4473 3.45605 24.9999 3.45605C24.5525 3.45605 24.1899 3.81858 24.1899 4.26599V5.99385C24.1899 6.44126 24.5525 6.80379 24.9999 6.80379Z" fill="#FF7C00"/>
<path d="M25.8641 18.0349H31.0477C31.4951 18.0349 31.8577 17.6724 31.8577 17.225C31.8577 16.7776 31.4951 16.415 31.0477 16.415H25.8641C25.4167 16.415 25.0542 16.7776 25.0542 17.225C25.0542 17.6724 25.4167 18.0349 25.8641 18.0349Z" fill="#FF7C00"/>
<path d="M25.8641 21.491H34.5034C34.9509 21.491 35.3134 21.1284 35.3134 20.681C35.3134 20.2336 34.9509 19.8711 34.5034 19.8711H25.8641C25.4167 19.8711 25.0542 20.2336 25.0542 20.681C25.0542 21.1284 25.4167 21.491 25.8641 21.491Z" fill="#FF7C00"/>
<path d="M17.5159 21.253C17.6741 21.4111 17.8815 21.4902 18.0887 21.4902C18.2959 21.4902 18.5033 21.4111 18.6615 21.253L22.9811 16.9334C23.2975 16.617 23.2975 16.1042 22.9811 15.7879C22.6647 15.4717 22.152 15.4717 21.8357 15.7879L18.0887 19.5349L16.0697 17.5158C15.7533 17.1996 15.2405 17.1996 14.9242 17.5158C14.6079 17.8322 14.6079 18.3449 14.9242 18.6613L17.5159 21.253Z" fill="#FF7C00"/>
<path d="M25.8641 26.6746H31.0477C31.4951 26.6746 31.8577 26.312 31.8577 25.8646C31.8577 25.4172 31.4951 25.0547 31.0477 25.0547H25.8641C25.4167 25.0547 25.0542 25.4172 25.0542 25.8646C25.0542 26.312 25.4167 26.6746 25.8641 26.6746Z" fill="#FF7C00"/>
<path d="M25.8641 30.1296H34.5034C34.9509 30.1296 35.3134 29.7671 35.3134 29.3197C35.3134 28.8723 34.9509 28.5098 34.5034 28.5098H25.8641C25.4167 28.5098 25.0542 28.8723 25.0542 29.3197C25.0542 29.7671 25.4167 30.1296 25.8641 30.1296Z" fill="#FF7C00"/>
<path d="M17.5159 29.8927C17.6741 30.0508 17.8815 30.1298 18.0887 30.1298C18.2959 30.1298 18.5033 30.0508 18.6615 29.8927L22.9811 25.573C23.2975 25.2566 23.2975 24.7439 22.9811 24.4276C22.6647 24.1114 22.152 24.1114 21.8357 24.4276L18.0887 28.1746L16.0697 26.1554C15.7533 25.8392 15.2405 25.8392 14.9242 26.1554C14.6079 26.4719 14.6079 26.9846 14.9242 27.3009L17.5159 29.8927Z" fill="#FF7C00"/>
<path d="M25.8641 35.3132H31.0477C31.4951 35.3132 31.8577 34.9507 31.8577 34.5033C31.8577 34.0559 31.4951 33.6934 31.0477 33.6934H25.8641C25.4167 33.6934 25.0542 34.0559 25.0542 34.5033C25.0542 34.9507 25.4167 35.3132 25.8641 35.3132Z" fill="#FF7C00"/>
<path d="M25.8641 38.7683H34.5034C34.9509 38.7683 35.3134 38.4058 35.3134 37.9584C35.3134 37.511 34.9509 37.1484 34.5034 37.1484H25.8641C25.4167 37.1484 25.0542 37.511 25.0542 37.9584C25.0542 38.4058 25.4167 38.7683 25.8641 38.7683Z" fill="#FF7C00"/>
<path d="M17.5159 38.5314C17.6741 38.6895 17.8815 38.7685 18.0887 38.7685C18.2959 38.7685 18.5033 38.6895 18.6615 38.5314L22.9811 34.2117C23.2975 33.8953 23.2975 33.3826 22.9811 33.0663C22.6647 32.7501 22.152 32.7501 21.8357 33.0663L18.0887 36.8132L16.0697 34.7941C15.7533 34.4779 15.2405 34.4779 14.9242 34.7941C14.6079 35.1105 14.6079 35.6233 14.9242 35.9396L17.5159 38.5314Z" fill="#FF7C00"/>
</g>
<defs>
<clipPath id="clip0">
<rect width="50" height="50" fill="white"/>
</clipPath>
</defs>
</svg>
