<svg width="51" height="50" viewBox="0 0 51 50" fill="none" xmlns="http://www.w3.org/2000/svg">
<g clip-path="url(#clip0)">
<path d="M50.8302 6.99971L48.2802 3.66638C47.9712 3.29815 47.4163 3.24533 47.0407 3.54825C46.9967 3.58367 46.9563 3.62325 46.9202 3.66638L44.3702 6.99971C44.2598 7.14398 44.2002 7.3194 44.2002 7.49971V46.6664C44.2002 48.5073 45.7224 49.9997 47.6002 49.9997C49.478 49.9997 51.0002 48.5073 51.0002 46.6664V7.49971C51.0002 7.3194 50.9406 7.14398 50.8302 6.99971ZM49.3002 46.6664C49.3002 47.5869 48.5391 48.333 47.6002 48.333C46.6613 48.333 45.9002 47.5869 45.9002 46.6664V44.9997H49.3002V46.6664ZM49.3002 43.333H45.9002V41.6664H49.3002V43.333ZM49.3002 39.9997H45.9002V9.99971H49.3002V39.9997ZM49.3002 8.33304H45.9002V7.77721L47.6002 5.55554L49.3002 7.77721V8.33304Z" fill="#FF7C00"/>
<path d="M41.6534 0C41.6522 0 41.6512 0 41.65 0H4.25C3.78059 0 3.4 0.373125 3.4 0.833333V15.0833C1.42258 15.4821 0.00255 17.1874 0 19.1667V45.8333C0.0027625 48.1333 1.904 49.9973 4.25 50H34.85C35.0754 49.9995 35.2914 49.9118 35.451 49.7558L42.251 43.0892C42.322 43.0183 42.3796 42.9356 42.421 42.845C42.4329 42.8192 42.4397 42.7942 42.449 42.7675C42.4734 42.6975 42.4883 42.6247 42.4932 42.5508C42.4932 42.5333 42.5034 42.5175 42.5034 42.5V0.833333C42.5034 0.373125 42.1228 0 41.6534 0ZM25.5 45.8333C25.5 47.2141 24.3583 48.3333 22.95 48.3333H4.25C2.84166 48.3333 1.7 47.2141 1.7 45.8333V19.1667C1.7 17.7859 2.84166 16.6667 4.25 16.6667H22.95C24.3583 16.6667 25.5 17.7859 25.5 19.1667V45.8333ZM14.45 10V15H8.5V10H14.45ZM8.5 8.33333V5H14.45V8.33333H8.5ZM22.1 10V15H16.15V10H22.1ZM16.15 8.33333V5H22.1V8.33333H16.15ZM23.8 15.0833V10H29.75V21.6667H27.2V19.1667C27.1975 17.1874 25.7774 15.4821 23.8 15.0833ZM23.8 8.33333V5H29.75V8.33333H23.8ZM35.7 47.155V43.3333H39.5981L35.7 47.155ZM40.8 41.6667H34.85C34.3806 41.6667 34 42.0398 34 42.5V48.3333H26.3279C26.8904 47.6164 27.1969 46.7379 27.2 45.8333V23.3333H38.25C38.7194 23.3333 39.1 22.9602 39.1 22.5V4.16667C39.1 3.70646 38.7194 3.33333 38.25 3.33333H7.65C7.18059 3.33333 6.8 3.70646 6.8 4.16667V15H5.1V1.66667H40.8V41.6667ZM37.4 10V21.6667H31.45V10H37.4ZM31.45 8.33333V5H37.4V8.33333H31.45Z" fill="#FF7C00"/>
<path d="M22.9501 19.167H4.25015C3.78073 19.167 3.40015 19.5401 3.40015 20.0003V25.0003C3.40015 25.4605 3.78073 25.8337 4.25015 25.8337H22.9501C23.4196 25.8337 23.8001 25.4605 23.8001 25.0003V20.0003C23.8001 19.5401 23.4196 19.167 22.9501 19.167ZM22.1001 24.167H5.10015V20.8337H22.1001V24.167Z" fill="#FF7C00"/>
<path d="M23.7999 34.166H18.6999C18.2304 34.166 17.8499 34.5391 17.8499 34.9993V44.9994C17.8499 45.4596 18.2304 45.8327 18.6999 45.8327H23.7999C24.2693 45.8327 24.6499 45.4596 24.6499 44.9994V34.9993C24.6499 34.5391 24.2693 34.166 23.7999 34.166ZM22.9499 44.166H19.5499V35.8327H22.9499V44.166Z" fill="#FF7C00"/>
<path d="M23.7999 27.5H18.6999C18.2304 27.5 17.8499 27.8731 17.8499 28.3333V31.6667C17.8499 32.1269 18.2304 32.5 18.6999 32.5H23.7999C24.2693 32.5 24.6499 32.1269 24.6499 31.6667V28.3333C24.6499 27.8731 24.2693 27.5 23.7999 27.5ZM22.9499 30.8333H19.5499V29.1667H22.9499V30.8333Z" fill="#FF7C00"/>
<path d="M16.1499 34.166H11.05C10.5805 34.166 10.2 34.5391 10.2 34.9993V38.3327C10.2 38.7929 10.5805 39.166 11.05 39.166H16.1499C16.6194 39.166 16.9999 38.7929 16.9999 38.3327V34.9993C16.9999 34.5391 16.6194 34.166 16.1499 34.166ZM15.2999 37.4994H11.9V35.8327H15.2999V37.4994Z" fill="#FF7C00"/>
<path d="M16.1499 27.5H11.05C10.5805 27.5 10.2 27.8731 10.2 28.3333V31.6667C10.2 32.1269 10.5805 32.5 11.05 32.5H16.1499C16.6194 32.5 16.9999 32.1269 16.9999 31.6667V28.3333C16.9999 27.8731 16.6194 27.5 16.1499 27.5ZM15.2999 30.8333H11.9V29.1667H15.2999V30.8333Z" fill="#FF7C00"/>
<path d="M8.4998 34.166H3.3998C2.93039 34.166 2.5498 34.5391 2.5498 34.9993V38.3327C2.5498 38.7929 2.93039 39.166 3.3998 39.166H8.4998C8.96922 39.166 9.3498 38.7929 9.3498 38.3327V34.9993C9.3498 34.5391 8.96922 34.166 8.4998 34.166ZM7.64981 37.4994H4.2498V35.8327H7.64981V37.4994Z" fill="#FF7C00"/>
<path d="M8.4998 27.5H3.3998C2.93039 27.5 2.5498 27.8731 2.5498 28.3333V31.6667C2.5498 32.1269 2.93039 32.5 3.3998 32.5H8.4998C8.96922 32.5 9.3498 32.1269 9.3498 31.6667V28.3333C9.3498 27.8731 8.96922 27.5 8.4998 27.5ZM7.64981 30.8333H4.2498V29.1667H7.64981V30.8333Z" fill="#FF7C00"/>
<path d="M16.1499 40.834H11.05C10.5805 40.834 10.2 41.2071 10.2 41.6673V45.0006C10.2 45.4609 10.5805 45.834 11.05 45.834H16.1499C16.6194 45.834 16.9999 45.4609 16.9999 45.0006V41.6673C16.9999 41.2071 16.6194 40.834 16.1499 40.834ZM15.2999 44.1673H11.9V42.5006H15.2999V44.1673Z" fill="#FF7C00"/>
<path d="M8.4998 40.834H3.3998C2.93039 40.834 2.5498 41.2071 2.5498 41.6673V45.0006C2.5498 45.4609 2.93039 45.834 3.3998 45.834H8.4998C8.96922 45.834 9.3498 45.4609 9.3498 45.0006V41.6673C9.3498 41.2071 8.96922 40.834 8.4998 40.834ZM7.64981 44.1673H4.2498V42.5006H7.64981V44.1673Z" fill="#FF7C00"/>
</g>
<defs>
<clipPath id="clip0">
<rect width="51" height="50" fill="white"/>
</clipPath>
</defs>
</svg>
