<?xml version="1.0" encoding="utf-8"?><svg xmlns="http://www.w3.org/2000/svg" xmlns:xlink="http://www.w3.org/1999/xlink"><symbol viewBox="0 0 20 22" id="arrow-back" xmlns="http://www.w3.org/2000/svg"><path d="M19.773 10.995H1m0 0l9.926-9.926M1 10.995l9.926 9.926"/></symbol><symbol viewBox="0 0 12 15" id="arrow-download" xmlns="http://www.w3.org/2000/svg"><path d="M6.75 1a.75.75 0 00-1.5 0h1.5zM5.47 14.53a.75.75 0 001.06 0l4.773-4.773a.75.75 0 10-1.06-1.06L6 12.939 1.757 8.697a.75.75 0 00-1.06 1.06L5.47 14.53zM5.25 1v13h1.5V1h-1.5z"/></symbol><symbol viewBox="0 0 8 4" id="bot" xmlns="http://www.w3.org/2000/svg"><defs><path id="ca" d="M1521 77.49l.52-.5 3.48 3.27 3.48-3.27.53.5-3.75 3.52-.26-.25-.26.25z"/></defs><g transform="translate(-1521 -77)"><use xlink:href="#ca"/><use xlink:href="#ca"/></g></symbol><symbol viewBox="0 0 344.96 344.96" id="check" xmlns="http://www.w3.org/2000/svg"><g data-name="Слой 2"><path d="M321.85 86.24l-40-23.11-23.1-40H212.5L172.48 0l-40 23.11H86.24l-23.11 40-40 23.1v46.21L0 172.48l23.11 40v46.21l40 23.11 23.11 40h46.21l40 23.1 40-23.11h46.21l23.11-40 40-23.11V212.5l23.11-40-23.11-40V86.24zM156.91 243.07a16.79 16.79 0 01-23.34 0l-50.45-50.44a16.19 16.19 0 010-22.89l13.35-13.35a16.19 16.19 0 0122.89 0l25.87 25.87 80.34-80.35a16.19 16.19 0 0122.89 0l13.35 13.35a16.19 16.19 0 010 22.89z" data-name="Capa 1"/></g></symbol><symbol viewBox="0 0 13 10" id="checkbox" xmlns="http://www.w3.org/2000/svg"><path d="M1 5l3.5 3.5 7-7"/></symbol><symbol viewBox="0 0 20 20" id="conversation" xmlns="http://www.w3.org/2000/svg"><g clip-path="url(#fclip0)"><path d="M19.928 15.697l-1.162-3.38a8.475 8.475 0 00.858-3.699 8.397 8.397 0 00-2.426-5.93 8.39 8.39 0 00-5.885-2.53 8.384 8.384 0 00-6.11 2.473 8.378 8.378 0 00-2.474 5.863 6.157 6.157 0 00-1.868 7.564l-.8 2.328c-.138.4-.037.835.262 1.135a1.092 1.092 0 001.134.262l2.328-.8a6.183 6.183 0 002.632.594h.01a6.147 6.147 0 004.97-2.528 8.474 8.474 0 003.491-.854l3.38 1.162a1.297 1.297 0 001.348-.312c.356-.356.476-.872.312-1.348zm-13.501 2.69h-.008a4.978 4.978 0 01-2.312-.575.596.596 0 00-.472-.036l-2.388.82.82-2.388a.595.595 0 00-.036-.471 4.96 4.96 0 01.809-5.755 8.397 8.397 0 002.42 4.645 8.402 8.402 0 004.65 2.33 4.95 4.95 0 01-3.483 1.43zm12.348-2.184a.108.108 0 01-.12.028l-3.619-1.244a.595.595 0 00-.471.037 7.271 7.271 0 01-3.377.838h-.011c-3.94 0-7.195-3.2-7.257-7.14a7.202 7.202 0 012.124-5.25 7.203 7.203 0 015.25-2.124c3.943.063 7.146 3.323 7.14 7.268a7.273 7.273 0 01-.839 3.377.596.596 0 00-.036.472l1.243 3.619a.108.108 0 01-.027.12z"/><path d="M14.723 5.45H7.63a.595.595 0 000 1.19h7.093a.595.595 0 000-1.19zm0 2.448H7.63a.595.595 0 000 1.19h7.093a.595.595 0 000-1.19zm-2.731 2.448H7.63a.595.595 0 100 1.19h4.362a.595.595 0 100-1.19z"/></g><defs><clipPath id="fclip0"><path d="M0 0h20v20H0z"/></clipPath></defs></symbol><symbol viewBox="0 0 26 26" id="eye" xmlns="http://www.w3.org/2000/svg"><g clip-path="url(#gclip0)"><path d="M25.806 12.492c-.232-.259-5.814-6.347-12.806-6.347-6.992 0-12.574 6.088-12.806 6.347a.762.762 0 000 1.016c.232.259 5.814 6.348 12.806 6.348 6.992 0 12.574-6.09 12.806-6.348a.762.762 0 000-1.016zM13 18.332A5.338 5.338 0 017.668 13 5.338 5.338 0 0113 7.668 5.339 5.339 0 0118.332 13 5.338 5.338 0 0113 18.332z"/><path d="M13.762 11.477c0-.767.38-1.44.959-1.855A3.76 3.76 0 0013 9.192 3.813 3.813 0 009.191 13c0 2.1 1.709 3.809 3.809 3.809a3.807 3.807 0 003.744-3.167c-1.534.494-2.982-.666-2.982-2.165z"/></g><defs><clipPath id="gclip0"><path d="M0 0h26v26H0z"/></clipPath></defs></symbol><symbol viewBox="0 0 21 21" id="fb" xmlns="http://www.w3.org/2000/svg"><path d="M17.924 0H3.076A3.08 3.08 0 000 3.076v14.848A3.08 3.08 0 003.076 21H9.27v-7.424H6.809V9.885h2.46V7.383a3.695 3.695 0 013.692-3.692h3.732v3.692h-3.732v2.502h3.732l-.615 3.691h-3.117V21h4.963A3.08 3.08 0 0021 17.924V3.076A3.08 3.08 0 0017.924 0z"/></symbol><symbol viewBox="0 0 9 9" id="filter-reset" xmlns="http://www.w3.org/2000/svg"><path d="M8 .903L.928 7.975"/></symbol><symbol viewBox="0 0 26 26" id="insta-bw" xmlns="http://www.w3.org/2000/svg"><g clip-path="url(#jclip0)"><path d="M25.974 7.644c-.06-1.381-.284-2.331-.604-3.154a6.346 6.346 0 00-1.503-2.306A6.399 6.399 0 0021.566.686c-.828-.32-1.773-.544-3.154-.605C17.02.015 16.578 0 13.048 0S9.076.015 7.69.076C6.308.137 5.358.361 4.536.681A6.344 6.344 0 002.23 2.184a6.401 6.401 0 00-1.499 2.3c-.32.83-.543 1.774-.604 3.156C.06 9.03.046 9.473.046 13.002c0 3.53.015 3.972.076 5.359.06 1.381.284 2.331.604 3.154.33.874.843 1.656 1.504 2.306a6.4 6.4 0 002.3 1.498c.828.32 1.773.544 3.155.605 1.386.06 1.828.076 5.358.076 3.53 0 3.972-.015 5.359-.076 1.381-.061 2.33-.285 3.154-.605a6.65 6.65 0 003.804-3.804c.32-.828.543-1.773.604-3.154.061-1.387.077-1.829.077-5.359 0-3.53-.006-3.971-.067-5.358zm-2.34 10.615c-.057 1.27-.27 1.956-.448 2.413a4.313 4.313 0 01-2.468 2.468c-.458.178-1.148.392-2.413.447-1.371.061-1.783.076-5.252.076s-3.885-.015-5.252-.076c-1.27-.055-1.955-.269-2.412-.447a4 4 0 01-1.493-.97 4.042 4.042 0 01-.97-1.493c-.178-.457-.392-1.148-.447-2.412-.062-1.372-.077-1.783-.077-5.252 0-3.47.015-3.886.077-5.252.055-1.27.269-1.956.446-2.413a3.952 3.952 0 01.976-1.493 4.026 4.026 0 011.493-.97c.457-.178 1.148-.391 2.412-.447 1.372-.06 1.783-.076 5.252-.076 3.474 0 3.886.015 5.252.076 1.27.056 1.956.27 2.413.447a3.998 3.998 0 011.493.97c.432.422.762.93.97 1.493.178.457.391 1.148.447 2.413.061 1.371.076 1.783.076 5.252s-.015 3.875-.076 5.246z"/><path d="M13.048 6.323a6.68 6.68 0 00-6.679 6.68 6.68 6.68 0 006.68 6.678 6.68 6.68 0 006.678-6.679 6.68 6.68 0 00-6.679-6.679zm0 11.012a4.333 4.333 0 11.002-8.667 4.333 4.333 0 01-.002 8.667zM21.551 6.06a1.56 1.56 0 11-3.119 0 1.56 1.56 0 013.119 0z"/></g><defs><clipPath id="jclip0"><path d="M0 0h26v26H0z"/></clipPath></defs></symbol><symbol viewBox="0 0 7 14" id="next" xmlns="http://www.w3.org/2000/svg"><path d="M.006.005l7.008 6.993-7.008 6.993"/></symbol><symbol viewBox="0 0 13 14" id="next-double" xmlns="http://www.w3.org/2000/svg"><path d="M6.006.005l7.008 6.993-7.008 6.993M.006.005l7.01 6.993-7.01 6.993"/></symbol><symbol viewBox="0 0 7 14" id="prev" xmlns="http://www.w3.org/2000/svg"><path d="M6.994 13.995l-7.01-6.993L6.995.009"/></symbol><symbol viewBox="0 0 13 14" id="prev-double" xmlns="http://www.w3.org/2000/svg"><path d="M6.993 13.995L-.015 7.002 6.993.009m6 13.986L5.984 7.002l7.01-6.993"/></symbol><symbol viewBox="0 0 27 27" id="rule" xmlns="http://www.w3.org/2000/svg"><g clip-path="url(#oclip0)"><path d="M25.985 21.003h-4.57l.357-2.254.722.147a.505.505 0 00.603-.423l.542-3.663a.507.507 0 00-.401-.572l-.728-.147.14-.881c.99-6.208-5.363-10.178-10.85-10.204a59.926 59.926 0 00-.848 0C5.465 3.032-.888 7.002.103 13.21l1.635 10.322h19.276l.08-.5h3.878a1.015 1.015 0 002.028-.05v-.964c0-.56-.454-1.015-1.015-1.015zm-14.609-.397a6.595 6.595 0 110-13.19 6.595 6.595 0 010 13.19z"/></g><defs><clipPath id="oclip0"><path d="M0 0h27v27H0z"/></clipPath></defs></symbol><symbol viewBox="0 0 18 18" id="search" xmlns="http://www.w3.org/2000/svg"><path d="M17.425 16.395l-4.284-4.455a7.244 7.244 0 001.705-4.673C14.846 3.26 11.586 0 7.579 0 3.57 0 .31 3.26.31 7.267c0 4.008 3.26 7.268 7.268 7.268a7.19 7.19 0 004.163-1.315l4.317 4.49a.94.94 0 00.683.29.95.95 0 00.683-1.605zm-9.846-14.5a5.378 5.378 0 015.371 5.372 5.378 5.378 0 01-5.37 5.373 5.378 5.378 0 01-5.372-5.372A5.378 5.378 0 017.58 1.897z"/></symbol><symbol viewBox="0 0 9 16" id="shevron-left" xmlns="http://www.w3.org/2000/svg"><path d="M.293 7.293a1 1 0 000 1.414l6.364 6.364a1 1 0 001.414-1.414L2.414 8l5.657-5.657A1 1 0 006.657.93L.293 7.293zM2 7H1v2h1V7z"/></symbol><symbol viewBox="0 0 9 16" id="shevron-right" xmlns="http://www.w3.org/2000/svg"><path d="M8.707 7.293a1 1 0 010 1.414l-6.364 6.364A1 1 0 01.93 13.657L6.586 8 .929 2.343A1 1 0 012.343.93l6.364 6.364zM7 7h1v2H7V7z"/></symbol><symbol viewBox="0 0 21 21" id="telephone" xmlns="http://www.w3.org/2000/svg"><g clip-path="url(#sclip0)"><path d="M15.966 13.892c-.686-.677-1.543-.677-2.225 0-.52.516-1.04 1.031-1.551 1.556-.14.144-.258.174-.428.078-.337-.183-.695-.332-1.018-.533-1.508-.948-2.771-2.167-3.89-3.54-.555-.681-1.048-1.411-1.394-2.233-.07-.166-.056-.275.079-.41.52-.503 1.027-1.018 1.538-1.534.713-.717.713-1.556-.004-2.277-.407-.41-.813-.813-1.22-1.223-.419-.42-.834-.844-1.258-1.259-.686-.669-1.542-.669-2.224.004-.525.516-1.027 1.045-1.56 1.552C.317 4.54.068 5.113.015 5.78-.068 6.87.2 7.896.575 8.897c.769 2.071 1.94 3.911 3.36 5.598 1.919 2.281 4.208 4.086 6.887 5.388 1.206.586 2.456 1.036 3.815 1.11.935.052 1.748-.183 2.4-.913.445-.498.948-.953 1.42-1.43.699-.707.703-1.564.008-2.263-.83-.835-1.665-1.665-2.5-2.495zm-.835-3.482l1.613-.276a7.207 7.207 0 00-2.015-3.89 7.168 7.168 0 00-4.108-2.049l-.227 1.621c1.21.17 2.312.717 3.181 1.587a5.56 5.56 0 011.556 3.006zm2.521-7.01A11.89 11.89 0 0010.835 0l-.227 1.621a10.31 10.31 0 015.89 2.937 10.301 10.301 0 012.89 5.571L21 9.854A11.977 11.977 0 0017.652 3.4z"/></g><defs><clipPath id="sclip0"><path d="M0 0h21v21H0z"/></clipPath></defs></symbol><symbol viewBox="0 0 19 19" id="time-left" xmlns="http://www.w3.org/2000/svg"><g clip-path="url(#tclip0)"><path d="M11.419 17.306a7.718 7.718 0 01-.475.102.765.765 0 00.278 1.503c.19-.035.38-.077.566-.123a.763.763 0 10-.369-1.482zm5.648-10.238a.761.761 0 00.966.485.764.764 0 00.485-.966 9.554 9.554 0 00-.2-.543.764.764 0 10-1.417.567c.06.15.116.303.166.457zm-3.166 9.147a8.041 8.041 0 01-.414.256.764.764 0 00.764 1.323c.166-.096.332-.198.492-.304a.764.764 0 00-.842-1.275zm5.092-7.014a.764.764 0 00-1.527.06c.007.161.008.325.005.486a.763.763 0 101.527.033 9.486 9.486 0 00-.005-.579zm-2.051 5.005a.764.764 0 00-1.07.152c-.096.13-.198.257-.303.38a.764.764 0 001.163.99c.125-.146.247-.299.363-.453a.764.764 0 00-.153-1.07zm1.124-2.761a.764.764 0 00-.958.5 8.058 8.058 0 01-.16.46.764.764 0 001.428.543c.069-.18.132-.363.19-.546a.764.764 0 00-.5-.957zm-9.979 5.97a7.887 7.887 0 01-1.96-.622l-.021-.012a8.353 8.353 0 01-.436-.221 8.157 8.157 0 01-.76-.475C1.317 13.555.453 8.572 2.984 4.98a7.937 7.937 0 011.96-1.95l.026-.018c2.617-1.803 6.17-1.925 8.949-.072l-.597.862c-.166.24-.064.415.226.389l2.593-.232a.427.427 0 00.386-.559L15.831.891c-.078-.28-.277-.314-.444-.075l-.598.865A9.433 9.433 0 007.154.365l-.005.001-.027.008a9.418 9.418 0 00-5.223 3.5l-.033.04a9.042 9.042 0 00-.33.476c-.008.012-.014.025-.021.037A9.417 9.417 0 00.01 9.98V10c.008.191.024.386.044.577l.006.036a9.426 9.426 0 002.74 5.69l.01.01.003.003c.373.368.78.709 1.217 1.017a9.418 9.418 0 003.787 1.585.763.763 0 10.27-1.504z"/><path d="M9.031 3.398a.618.618 0 00-.618.618v6.157l5.631 2.91a.618.618 0 10.567-1.098L9.65 9.421V4.016a.618.618 0 00-.618-.618z"/></g><defs><clipPath id="tclip0"><path d="M0 0h19v19H0z"/></clipPath></defs></symbol><symbol viewBox="0 0 22 18" id="tw" xmlns="http://www.w3.org/2000/svg"><path d="M22 2.179a9.403 9.403 0 01-2.599.712A4.485 4.485 0 0021.385.398a9.014 9.014 0 01-2.86 1.092 4.509 4.509 0 00-7.802 3.084c0 .357.03.701.105 1.028-3.75-.183-7.067-1.98-9.296-4.717a4.54 4.54 0 00-.618 2.28c0 1.561.805 2.946 2.004 3.748A4.454 4.454 0 01.88 6.357v.05a4.531 4.531 0 003.614 4.431 4.5 4.5 0 01-1.183.149c-.289 0-.58-.017-.854-.077.585 1.786 2.243 3.1 4.215 3.142a9.063 9.063 0 01-5.593 1.923c-.37 0-.724-.016-1.079-.061a12.697 12.697 0 006.919 2.024c8.3 0 12.837-6.875 12.837-12.835 0-.2-.007-.392-.017-.583A8.999 8.999 0 0022 2.18z"/></symbol><symbol viewBox="0 0 22 14" id="vk" xmlns="http://www.w3.org/2000/svg"><path d="M21.804 11.92c-.06-.1-.425-.894-2.185-2.528-1.843-1.71-1.595-1.432.624-4.39C21.595 3.2 22.135 2.1 21.966 1.63c-.16-.448-1.155-.33-1.155-.33l-3.306.02s-.244-.034-.427.075c-.178.107-.292.355-.292.355s-.524 1.394-1.222 2.58C14.09 6.83 13.5 6.962 13.26 6.806c-.56-.361-.419-1.455-.419-2.23 0-2.425.367-3.435-.716-3.696-.36-.087-.625-.145-1.545-.154C9.4.714 8.4.73 7.836 1.006c-.377.184-.667.595-.49.619.219.029.714.133.976.49.34.461.328 1.498.328 1.498s.195 2.854-.455 3.208c-.447.244-1.06-.253-2.373-2.523-.672-1.162-1.18-2.448-1.18-2.448s-.098-.239-.273-.367c-.212-.155-.509-.205-.509-.205L.717 1.3s-.472.013-.645.218c-.154.183-.013.56-.013.56s2.462 5.757 5.248 8.66c2.556 2.661 5.458 2.486 5.458 2.486h1.314s.398-.044.6-.262c.187-.201.18-.578.18-.578s-.026-1.764.793-2.024c.808-.256 1.844 1.705 2.943 2.46.83.57 1.462.446 1.462.446l2.938-.042s1.538-.095.809-1.303z"/></symbol><symbol viewBox="0 0 16 16" id="whatsapp" xmlns="http://www.w3.org/2000/svg"><path d="M8.002 0h-.004C3.587 0 0 3.588 0 8a7.94 7.94 0 001.523 4.689l-.997 2.972 3.075-.983A7.93 7.93 0 008.002 16C12.413 16 16 12.411 16 8s-3.587-8-7.998-8zm4.655 11.297c-.193.545-.959.997-1.57 1.129-.418.089-.964.16-2.802-.602-2.351-.974-3.865-3.363-3.983-3.518-.113-.155-.95-1.265-.95-2.413s.583-1.707.818-1.947c.193-.197.512-.287.818-.287.099 0 .188.005.268.009.235.01.353.024.508.395.193.465.663 1.613.719 1.731.057.118.114.278.034.433-.075.16-.141.231-.259.367-.118.136-.23.24-.348.386-.108.127-.23.263-.094.498.136.23.606.997 1.298 1.613.893.795 1.617 1.049 1.876 1.157.193.08.423.061.564-.089.179-.193.4-.513.625-.828.16-.226.362-.254.574-.174.216.075 1.359.64 1.594.757.235.118.39.174.447.273.056.099.056.564-.137 1.11z"/></symbol></svg>