<?xml version="1.0" encoding="utf-8"?><svg xmlns="http://www.w3.org/2000/svg" xmlns:xlink="http://www.w3.org/1999/xlink"><symbol viewBox="0 0 8 4" id="bot" xmlns="http://www.w3.org/2000/svg"><defs><path id="aa" d="M1521 77.49l.52-.5 3.48 3.27 3.48-3.27.53.5-3.75 3.52-.26-.25-.26.25z"/></defs><g transform="translate(-1521 -77)"><use xlink:href="#aa"/><use xlink:href="#aa"/></g></symbol><symbol viewBox="0 0 344.96 344.96" id="check" xmlns="http://www.w3.org/2000/svg"><g data-name="Слой 2"><path d="M321.85 86.24l-40-23.11-23.1-40H212.5L172.48 0l-40 23.11H86.24l-23.11 40-40 23.1v46.21L0 172.48l23.11 40v46.21l40 23.11 23.11 40h46.21l40 23.1 40-23.11h46.21l23.11-40 40-23.11V212.5l23.11-40-23.11-40V86.24zM156.91 243.07a16.79 16.79 0 01-23.34 0l-50.45-50.44a16.19 16.19 0 010-22.89l13.35-13.35a16.19 16.19 0 0122.89 0l25.87 25.87 80.34-80.35a16.19 16.19 0 0122.89 0l13.35 13.35a16.19 16.19 0 010 22.89z" data-name="Capa 1"/></g></symbol><symbol viewBox="0 0 13 10" id="checkbox" xmlns="http://www.w3.org/2000/svg"><path d="M1 5l3.5 3.5 7-7"/></symbol><symbol viewBox="0 0 7 14" id="next" xmlns="http://www.w3.org/2000/svg"><path d="M.006.005l7.008 6.993-7.008 6.993"/></symbol><symbol viewBox="0 0 13 14" id="next-double" xmlns="http://www.w3.org/2000/svg"><path d="M6.006.005l7.008 6.993-7.008 6.993M.006.005l7.01 6.993-7.01 6.993"/></symbol><symbol viewBox="0 0 7 14" id="prev" xmlns="http://www.w3.org/2000/svg"><path d="M6.994 13.995l-7.01-6.993L6.995.009"/></symbol><symbol viewBox="0 0 13 14" id="prev-double" xmlns="http://www.w3.org/2000/svg"><path d="M6.993 13.995L-.015 7.002 6.993.009m6 13.986L5.984 7.002l7.01-6.993"/></symbol><symbol viewBox="0 0 27 27" id="rule" xmlns="http://www.w3.org/2000/svg"><g clip-path="url(#hclip0)"><path d="M25.985 21.003h-4.57l.357-2.254.722.147a.505.505 0 00.603-.423l.542-3.663a.507.507 0 00-.401-.572l-.728-.147.14-.881c.99-6.208-5.363-10.178-10.85-10.204a59.926 59.926 0 00-.848 0C5.465 3.032-.888 7.002.103 13.21l1.635 10.322h19.276l.08-.5h3.878a1.015 1.015 0 002.028-.05v-.964c0-.56-.454-1.015-1.015-1.015zm-14.609-.397a6.595 6.595 0 110-13.19 6.595 6.595 0 010 13.19z"/></g><defs><clipPath id="hclip0"><path d="M0 0h27v27H0z"/></clipPath></defs></symbol><symbol viewBox="0 0 21 21" id="telephone" xmlns="http://www.w3.org/2000/svg"><g clip-path="url(#iclip0)"><path d="M15.966 13.892c-.686-.677-1.543-.677-2.225 0-.52.516-1.04 1.031-1.551 1.556-.14.144-.258.174-.428.078-.337-.183-.695-.332-1.018-.533-1.508-.948-2.771-2.167-3.89-3.54-.555-.681-1.048-1.411-1.394-2.233-.07-.166-.056-.275.079-.41.52-.503 1.027-1.018 1.538-1.534.713-.717.713-1.556-.004-2.277-.407-.41-.813-.813-1.22-1.223-.419-.42-.834-.844-1.258-1.259-.686-.669-1.542-.669-2.224.004-.525.516-1.027 1.045-1.56 1.552C.317 4.54.068 5.113.015 5.78-.068 6.87.2 7.896.575 8.897c.769 2.071 1.94 3.911 3.36 5.598 1.919 2.281 4.208 4.086 6.887 5.388 1.206.586 2.456 1.036 3.815 1.11.935.052 1.748-.183 2.4-.913.445-.498.948-.953 1.42-1.43.699-.707.703-1.564.008-2.263-.83-.835-1.665-1.665-2.5-2.495zm-.835-3.482l1.613-.276a7.207 7.207 0 00-2.015-3.89 7.168 7.168 0 00-4.108-2.049l-.227 1.621c1.21.17 2.312.717 3.181 1.587a5.56 5.56 0 011.556 3.006zm2.521-7.01A11.89 11.89 0 0010.835 0l-.227 1.621a10.31 10.31 0 015.89 2.937 10.301 10.301 0 012.89 5.571L21 9.854A11.977 11.977 0 0017.652 3.4z"/></g><defs><clipPath id="iclip0"><path d="M0 0h21v21H0z"/></clipPath></defs></symbol><symbol viewBox="0 0 19 19" id="time-left" xmlns="http://www.w3.org/2000/svg"><g clip-path="url(#jclip0)"><path d="M11.419 17.306a7.718 7.718 0 01-.475.102.765.765 0 00.278 1.503c.19-.035.38-.077.566-.123a.763.763 0 10-.369-1.482zm5.648-10.238a.761.761 0 00.966.485.764.764 0 00.485-.966 9.554 9.554 0 00-.2-.543.764.764 0 10-1.417.567c.06.15.116.303.166.457zm-3.166 9.147a8.041 8.041 0 01-.414.256.764.764 0 00.764 1.323c.166-.096.332-.198.492-.304a.764.764 0 00-.842-1.275zm5.092-7.014a.764.764 0 00-1.527.06c.007.161.008.325.005.486a.763.763 0 101.527.033 9.486 9.486 0 00-.005-.579zm-2.051 5.005a.764.764 0 00-1.07.152c-.096.13-.198.257-.303.38a.764.764 0 001.163.99c.125-.146.247-.299.363-.453a.764.764 0 00-.153-1.07zm1.124-2.761a.764.764 0 00-.958.5 8.058 8.058 0 01-.16.46.764.764 0 001.428.543c.069-.18.132-.363.19-.546a.764.764 0 00-.5-.957zm-9.979 5.97a7.887 7.887 0 01-1.96-.622l-.021-.012a8.353 8.353 0 01-.436-.221 8.157 8.157 0 01-.76-.475C1.317 13.555.453 8.572 2.984 4.98a7.937 7.937 0 011.96-1.95l.026-.018c2.617-1.803 6.17-1.925 8.949-.072l-.597.862c-.166.24-.064.415.226.389l2.593-.232a.427.427 0 00.386-.559L15.831.891c-.078-.28-.277-.314-.444-.075l-.598.865A9.433 9.433 0 007.154.365l-.005.001-.027.008a9.418 9.418 0 00-5.223 3.5l-.033.04a9.042 9.042 0 00-.33.476c-.008.012-.014.025-.021.037A9.417 9.417 0 00.01 9.98V10c.008.191.024.386.044.577l.006.036a9.426 9.426 0 002.74 5.69l.01.01.003.003c.373.368.78.709 1.217 1.017a9.418 9.418 0 003.787 1.585.763.763 0 10.27-1.504z"/><path d="M9.031 3.398a.618.618 0 00-.618.618v6.157l5.631 2.91a.618.618 0 10.567-1.098L9.65 9.421V4.016a.618.618 0 00-.618-.618z"/></g><defs><clipPath id="jclip0"><path d="M0 0h19v19H0z"/></clipPath></defs></symbol></svg>