<svg width="32" height="32" viewBox="0 0 32 32" fill="none" xmlns="http://www.w3.org/2000/svg">
<path d="M0 32L2.20688 24C0.772438 21.5173 0 18.7586 0 15.8896C0 7.17244 7.17244 0 15.9448 0C24.7172 0 32 7.17244 32 15.8896C32 24.6068 24.7173 32 15.9448 32C13.1862 32 10.5379 31.1173 8.1655 29.7931L0 32Z" fill="#EDEDED"/>
<path d="M8.60606 26.9243L9.10262 27.2002C11.144 28.4691 13.5164 29.2415 15.9992 29.2415C23.2267 29.2415 29.2406 23.2277 29.2406 15.8898C29.2406 8.55185 23.2267 2.75879 15.944 2.75879C8.66125 2.75879 2.75781 8.60704 2.75781 15.8898C2.75781 18.4277 3.47506 20.9105 4.79919 23.007L5.13025 23.5036L3.86131 28.1381L8.60606 26.9243Z" fill="#55CD6C"/>
<path d="M11.6971 8.49659L10.6489 8.44141C10.3178 8.44141 9.98681 8.55178 9.76612 8.77247C9.26956 9.21384 8.44199 10.0414 8.22131 11.1449C7.83512 12.8001 8.44199 14.7863 9.87649 16.7725C11.311 18.7587 14.0696 21.9587 18.9247 23.338C20.4696 23.7793 21.6834 23.5035 22.6765 22.8966C23.4489 22.4 23.9454 21.6277 24.111 20.8L24.2765 20.0276C24.3317 19.8069 24.2213 19.531 24.0006 19.4207L20.5247 17.8207C20.3041 17.7103 20.0282 17.7655 19.8627 17.9862L18.4834 19.7517C18.373 19.8621 18.2075 19.9172 18.042 19.8621C17.1041 19.531 13.9592 18.2069 12.2489 14.8966C12.1937 14.7311 12.1937 14.5655 12.3041 14.4552L13.6282 12.9656C13.7386 12.8001 13.7937 12.5794 13.7386 12.4138L12.1386 8.82766C12.0833 8.66209 11.9178 8.49659 11.6971 8.49659Z" fill="#FEFEFE"/>
</svg>
