<svg width="38" height="38" viewBox="0 0 38 38" fill="none" xmlns="http://www.w3.org/2000/svg">
<path d="M36.0599 10.0956C35.6493 8.56944 34.446 7.36636 32.9201 6.9554C30.1323 6.19263 18.981 6.19263 18.981 6.19263C18.981 6.19263 7.83015 6.19263 5.04238 6.92648C3.54576 7.337 2.3131 8.56966 1.90258 10.0956C1.16895 12.8832 1.16895 18.6642 1.16895 18.6642C1.16895 18.6642 1.16895 24.4744 1.90258 27.2328C2.31354 28.7587 3.5164 29.9618 5.0426 30.3728C7.8595 31.1358 18.9814 31.1358 18.9814 31.1358C18.9814 31.1358 30.1323 31.1358 32.9201 30.4019C34.4463 29.9912 35.6493 28.7881 36.0603 27.2621C36.7937 24.4744 36.7937 18.6936 36.7937 18.6936C36.7937 18.6936 36.8231 12.8832 36.0599 10.0956ZM15.4307 24.0049V13.3235L24.7035 18.6642L15.4307 24.0049Z" fill="white"/>
</svg>
