<svg width="38" height="38" viewBox="0 0 38 38" fill="none" xmlns="http://www.w3.org/2000/svg">
<path d="M1.48124 4.0069C1.32165 3.90028 1.22559 3.72095 1.22559 3.52882L1.22559 3.37776C1.22469 2.74189 1.57438 2.15674 2.13484 1.85642C2.69574 1.55588 3.37606 1.58843 3.90554 1.94127L36.5949 23.7362C36.7545 23.8428 36.8506 24.0224 36.8506 24.2143L36.8506 24.3654C36.8515 25.0015 36.5018 25.5864 35.9413 25.8869C35.3804 26.1875 34.7001 26.1549 34.1706 25.8018L33.403 25.2876L33.403 29.3857L36.276 29.3857C36.5934 29.3857 36.8506 29.6429 36.8506 29.9603L36.8506 35.7062C36.8506 36.0234 36.5934 36.2808 36.276 36.2808L1.80018 36.2808C1.4828 36.2808 1.22558 36.0234 1.22558 35.7062L1.22558 12.7224C1.22558 12.405 1.48281 12.1478 1.80018 12.1478L4.67316 12.1478L4.67316 6.1347L1.48124 4.0069ZM10.4191 12.1478C10.7365 12.1478 10.9937 12.405 10.9937 12.7224L10.9937 17.8937L13.2921 17.8937L13.2921 11.8807L7.54615 8.04972L7.54615 12.1478L10.4191 12.1478ZM19.0381 17.8937C19.3555 17.8937 19.6127 18.151 19.6127 18.4683L19.6127 23.6397L21.9111 23.6397L21.9111 17.6266L16.1651 13.7957L16.1651 17.8937L19.0381 17.8937ZM27.657 23.6397C27.9744 23.6397 28.2316 23.8969 28.2316 24.2143L28.2316 29.3857L30.53 29.3857L30.53 23.3726L24.7841 19.5417L24.784 23.6397L27.657 23.6397ZM23.6349 18.7758L23.2522 18.5209L23.0603 18.3925L23.0603 23.6397L23.6349 23.6397L23.6349 18.7758ZM15.0159 13.0299L14.782 12.8741L14.4413 12.6443L14.4413 17.8937L15.0159 17.8937L15.0159 13.0299ZM34.8083 24.8464C34.9836 24.9669 35.2121 24.9781 35.3982 24.8753C35.5407 24.8006 35.6451 24.6693 35.6855 24.5135L3.26787 2.89968C3.09257 2.77915 2.86408 2.76792 2.67801 2.87095C2.53549 2.94546 2.43112 3.07677 2.39072 3.23254L34.8083 24.8464ZM32.2538 24.5218L31.7223 24.1672L31.6792 24.1384L31.6792 29.3857L32.2538 29.3857L32.2538 24.5218ZM2.37478 35.1316L35.7014 35.1316L35.7014 30.5349L27.657 30.5349C27.3397 30.5349 27.0824 30.2774 27.0824 29.9603L27.0824 24.7889L19.0381 24.7889C18.7207 24.7889 18.4635 24.5315 18.4635 24.2143L18.4635 19.0429L10.4191 19.0429C10.1018 19.0429 9.84453 18.7857 9.84453 18.4683L9.84453 13.297L2.37478 13.297L2.37478 35.1316ZM5.82236 12.1478L6.39695 12.1478L6.39695 7.2839L6.31189 7.22644L5.82236 6.90053L5.82236 12.1478Z" fill="#205f46"/>
<path d="M3.52403 23.0654C3.84141 23.0654 4.09863 23.3227 4.09863 23.64L4.09863 25.9384C4.09863 26.2556 3.84141 26.513 3.52403 26.513C3.20666 26.513 2.94943 26.2556 2.94943 25.9384L2.94943 23.64C2.94943 23.3227 3.20666 23.0654 3.52403 23.0654Z" fill="#205f46"/>
<path d="M3.52421 27.0874C3.84159 27.0874 4.09881 27.3446 4.09881 27.662L4.09881 33.408L6.97179 33.408C7.28916 33.408 7.54639 33.6652 7.54639 33.9826C7.54639 34.2997 7.28916 34.5572 6.97179 34.5572L3.52421 34.5572C3.20684 34.5572 2.94961 34.2997 2.94961 33.9826L2.94962 27.662C2.94962 27.3446 3.20684 27.0874 3.52421 27.0874Z" fill="#205f46"/>
<path d="M5.82227 14.4462C5.82227 14.7636 5.56504 15.0208 5.24767 15.0208L4.09848 15.0208L4.09848 16.7446C4.09848 17.0619 3.84126 17.3192 3.52389 17.3192C3.20651 17.3192 2.94929 17.0619 2.94929 16.7446L2.94929 14.4462C2.94929 14.1288 3.20651 13.8716 3.52389 13.8716L5.24767 13.8716C5.56504 13.8716 5.82227 14.1288 5.82227 14.4462Z" fill="#205f46"/>
<path d="M9.27032 33.4082L17.8893 33.4082C18.2066 33.4082 18.4639 33.6654 18.4639 33.9828C18.4639 34.3 18.2066 34.5574 17.8893 34.5574L9.27032 34.5574C8.95295 34.5574 8.69573 34.3 8.69573 33.9828C8.69573 33.6654 8.95295 33.4082 9.27032 33.4082Z" fill="#205f46"/>
</svg>
