<svg width="59" height="59" viewBox="0 0 59 59" fill="none" xmlns="http://www.w3.org/2000/svg">
<g clip-path="url(#clip0)">
<path fill-rule="evenodd" clip-rule="evenodd" d="M47.2875 19.6666H42.2833C41.7403 19.6666 41.3 20.1069 41.3 20.6499V37.3666H38.8269C40.1037 34.577 38.8773 31.2806 36.0878 30.0039C35.3613 29.6714 34.5717 29.4994 33.7726 29.4999H28.9238L27.9139 28.49L39.0728 16.4009C39.4415 16.0018 39.4168 15.3793 39.0177 15.0105C38.6186 14.6418 37.996 14.6665 37.6273 15.0656L26.5215 27.0976L20.9912 21.5674L29.2778 11.439C29.6151 11.0134 29.5435 10.395 29.1179 10.0576C28.7014 9.72754 28.0981 9.78802 27.7556 10.1941L19.1022 20.7728C15.9064 21.5531 13.4522 24.1143 12.8089 27.3405C12.7455 27.6618 12.846 27.9936 13.0773 28.2255L22.2096 37.3666H20.65C20.107 37.3666 19.6667 37.8069 19.6667 38.3499V55.0666H16.6882C18.3277 52.9151 17.9126 49.8416 15.7611 48.2021C14.9055 47.5501 13.8591 47.1978 12.7833 47.1999H8.39275L6.88333 44.9383V10.8166C6.88333 10.2735 6.44305 9.83325 5.9 9.83325C5.35695 9.83325 4.91667 10.2735 4.91667 10.8166V44.2499H0.983333C0.440287 44.2499 0 44.6902 0 45.2333C0 45.7763 0.440287 46.2166 0.983333 46.2166H5.37392L6.88333 48.4783V51.1333C6.88333 51.6763 7.32362 52.1166 7.86667 52.1166C8.40971 52.1166 8.85 51.6763 8.85 51.1333V49.1666H10.8167V51.1333C10.8167 51.6763 11.257 52.1166 11.8 52.1166C12.343 52.1166 12.7833 51.6763 12.7833 51.1333V49.1666C14.4126 49.1666 15.7333 50.4873 15.7333 52.1166C15.7333 53.7458 14.4126 55.0666 12.7833 55.0666H0.983333C0.440287 55.0666 0 55.5069 0 56.0499C0 56.593 0.440287 57.0333 0.983333 57.0333H20.65C21.193 57.0333 21.6333 56.593 21.6333 56.0499V39.3333H42.2833C42.8264 39.3333 43.2667 38.893 43.2667 38.3499V21.6333H58.0167C58.5597 21.6333 59 21.193 59 20.6499L56.8947 19.6666H49.3024H47.2875ZM36.5416 37.3558V37.3518C37.0749 36.7074 37.3667 35.8971 37.3667 35.0607C37.3667 33.0758 35.7576 31.4666 33.7726 31.4666H33.4333V33.4333C33.4333 33.9763 32.993 34.4166 32.45 34.4166C31.907 34.4166 31.4667 33.9763 31.4667 33.4333V31.4666H29.5V33.4333C29.5 33.9763 29.0597 34.4166 28.5167 34.4166C27.9736 34.4166 27.5333 33.9763 27.5333 33.4333V30.8904L19.3599 22.7149C17.1718 23.3285 15.4619 25.0384 14.8483 27.2265L24.9904 37.3666L36.5416 37.3558Z" fill="#205f46"/>
</g>
<defs>
<clipPath id="clip0">
<rect width="59" height="59" fill="white"/>
</clipPath>
</defs>
</svg>
