<svg width="59" height="59" viewBox="0 0 59 59" fill="none" xmlns="http://www.w3.org/2000/svg">
<path d="M56.6997 6.22146C56.9475 6.05593 57.0967 5.77748 57.0967 5.47917V5.24464C57.0981 4.25736 56.5551 3.34885 55.6849 2.88257C54.8141 2.41594 53.7578 2.46647 52.9357 3.0143L2.18111 36.8538C1.93334 37.0194 1.78418 37.2981 1.78418 37.5961V37.8306C1.78279 38.8183 2.32574 39.7264 3.19592 40.1931C4.0668 40.6597 5.12308 40.6092 5.94517 40.061L7.137 39.2626V45.6253H2.67632C2.18355 45.6253 1.78418 46.0247 1.78418 46.5175V55.4388C1.78418 55.9313 2.18355 56.331 2.67632 56.331H56.2045C56.6973 56.331 57.0967 55.9313 57.0967 55.4388V19.7534C57.0967 19.2606 56.6973 18.8612 56.2045 18.8612H51.7439V9.52515L56.6997 6.22146ZM42.8225 18.8612C42.3297 18.8612 41.9304 19.2606 41.9304 19.7534V27.7826H38.3618V18.4465L47.2832 12.4985V18.8612H42.8225ZM29.4404 27.7826C28.9477 27.7826 28.5483 28.182 28.5483 28.6747V36.704H24.9797V27.3679L33.9011 21.4198V27.7826H29.4404ZM16.0584 36.704C15.5656 36.704 15.1662 37.1033 15.1662 37.5961V45.6253H11.5977V36.2893L20.5191 30.3412V36.704H16.0584ZM22.3033 29.1522L22.8975 28.7563L23.1955 28.5569V36.704H22.3033V29.1522ZM35.6854 20.2308L36.0485 19.9889L36.5775 19.6321V27.7826H35.6854V20.2308ZM4.9551 38.5775C4.68293 38.7646 4.32817 38.782 4.03927 38.6224C3.81798 38.5064 3.65593 38.3025 3.5932 38.0606L53.9258 4.50235C54.1979 4.31521 54.5527 4.29779 54.8416 4.45775C55.0629 4.57344 55.2249 4.77731 55.2877 5.01916L4.9551 38.5775ZM8.92128 38.0735L9.74651 37.5229L9.81342 37.4783V45.6253H8.92128V38.0735ZM55.3124 54.5467H3.56846V47.4096H16.0584C16.5511 47.4096 16.9505 47.0099 16.9505 46.5175V38.4882H29.4404C29.9332 38.4882 30.3326 38.0885 30.3326 37.5961V29.5669H42.8225C43.3153 29.5669 43.7146 29.1675 43.7146 28.6747V20.6455H55.3124V54.5467ZM49.9596 18.8612H49.0674V11.3094L49.1995 11.2202L49.9596 10.7142V18.8612Z" fill="#205f46"/>
<path d="M53.5281 35.812C53.0354 35.812 52.636 36.2114 52.636 36.7041V40.2727C52.636 40.7651 53.0354 41.1648 53.5281 41.1648C54.0209 41.1648 54.4203 40.7651 54.4203 40.2727V36.7041C54.4203 36.2114 54.0209 35.812 53.5281 35.812Z" fill="#205f46"/>
<path d="M53.5282 42.0569C53.0354 42.0569 52.636 42.4563 52.636 42.949V51.8704H48.1753C47.6826 51.8704 47.2832 52.2698 47.2832 52.7625C47.2832 53.255 47.6826 53.6547 48.1753 53.6547H53.5282C54.0209 53.6547 54.4203 53.255 54.4203 52.7625V42.949C54.4203 42.4563 54.0209 42.0569 53.5282 42.0569Z" fill="#205f46"/>
<path d="M49.9597 22.4297C49.9597 22.9225 50.3591 23.3219 50.8519 23.3219H52.6361V25.9983C52.6361 26.491 53.0355 26.8904 53.5283 26.8904C54.021 26.8904 54.4204 26.491 54.4204 25.9983V22.4297C54.4204 21.937 54.021 21.5376 53.5283 21.5376H50.8519C50.3591 21.5376 49.9597 21.937 49.9597 22.4297Z" fill="#205f46"/>
<path d="M44.6069 51.8704H31.2249C30.7321 51.8704 30.3328 52.2697 30.3328 52.7625C30.3328 53.2549 30.7321 53.6546 31.2249 53.6546H44.6069C45.0997 53.6546 45.4991 53.2549 45.4991 52.7625C45.4991 52.2697 45.0997 51.8704 44.6069 51.8704Z" fill="#205f46"/>
</svg>
