<svg width="51" height="50" viewBox="0 0 51 50" fill="none" xmlns="http://www.w3.org/2000/svg">
<g clip-path="url(#clip0)">
<path d="M50.9063 11.8558C50.7308 11.2159 50.3026 10.6703 49.7166 10.3396C49.1303 10.0072 48.4331 9.9173 47.7791 10.0894C47.126 10.2619 46.5695 10.6813 46.2321 11.2558L45.8072 11.9807C45.4035 11.7533 44.8876 11.8872 44.6515 12.281L42.4929 15.8884L41.7534 15.4718C41.5575 15.3607 41.3243 15.3306 41.106 15.3884C40.8874 15.4465 40.7014 15.5873 40.589 15.7801C40.3587 16.1784 40.4989 16.6845 40.9035 16.9132L41.643 17.3298L34.4192 29.6027L32.6345 34.2772L31.7846 35.8349C31.2871 36.6836 31.3402 37.7385 31.9207 38.5347L30.0085 40.8341L29.4732 39.518C29.2317 38.9313 28.6728 38.5294 28.03 38.4801C27.3868 38.4305 26.7705 38.7421 26.439 39.2844L26.1332 39.7926L25.8443 36.4598C25.7779 35.6714 25.1551 35.0375 24.3542 34.9423C23.5529 34.8475 22.7943 35.3182 22.5383 36.0684L20.4477 42.2173C20.3016 42.6522 20.5406 43.1209 20.983 43.2673C21.066 43.3052 21.1552 43.3279 21.2465 43.3336C21.6117 43.3349 21.937 43.1066 22.054 42.7673L24.1359 36.6185L24.4334 40.0009C24.4949 40.7226 25.0239 41.3227 25.7435 41.4862C26.4631 41.6498 27.2075 41.3389 27.5864 40.7177L27.9009 40.2092L28.4279 41.5175C28.6516 42.0688 29.1574 42.4622 29.7562 42.5497C30.355 42.6371 30.9559 42.4057 31.3344 41.9423L33.3146 39.4846C33.5337 39.5407 33.7594 39.5688 33.986 39.568C34.8969 39.5749 35.7426 39.1046 36.204 38.3345L37.0539 36.9431L40.2919 33.0855L47.592 20.6625L48.3315 21.0791C48.5286 21.1898 48.6722 21.3725 48.7307 21.5877C48.7896 21.8013 48.7589 22.0291 48.646 22.2207L45.2466 27.9949C45.1184 28.1844 45.0748 28.4172 45.1263 28.6393C45.1777 28.861 45.3192 29.0526 45.5184 29.1694C45.7143 29.2809 45.9475 29.311 46.1658 29.2532C46.3844 29.195 46.5703 29.0543 46.6828 28.8614L50.0822 23.0873C50.4212 22.5124 50.513 21.8289 50.337 21.1878C50.1611 20.5474 49.7332 20.0018 49.1473 19.6711L48.4078 19.2545L50.5325 15.6467C50.7644 15.2509 50.6279 14.7456 50.2266 14.5137L50.6516 13.7887C50.9997 13.2049 51.0918 12.5076 50.9063 11.8558ZM47.7024 12.089C47.8148 11.8961 48.0016 11.755 48.2211 11.6976C48.4394 11.6447 48.6701 11.6744 48.8668 11.781C49.0639 11.8912 49.2075 12.0743 49.2664 12.2891C49.3203 12.5031 49.29 12.7293 49.1813 12.9222L48.7564 13.6471L47.2775 12.8139L47.7024 12.089ZM36.119 35.352L35.694 35.1104L34.4363 34.3935L35.643 31.2275L38.3199 32.7438L36.119 35.352ZM33.5694 37.7596C33.2104 37.5143 33.1001 37.0424 33.3146 36.6681L33.7395 35.9435L35.2181 36.7767L34.7931 37.4932C34.674 37.6958 34.474 37.8398 34.2412 37.8906C34.0084 37.9411 33.7648 37.8939 33.5694 37.7596ZM39.2889 31.3777L36.3484 29.7113L43.1473 18.163L46.0877 19.8293L39.2889 31.3777ZM46.9376 18.3879L43.9971 16.7216L45.6968 13.8387L48.6373 15.5051L46.9376 18.3879Z" fill="#205f46"/>
<path d="M13.4107 37.3439L10.4026 40.2853L8.60078 38.5188C8.26922 38.1958 7.73391 38.1958 7.40235 38.5188C7.24134 38.6754 7.15088 38.8882 7.15088 39.1104C7.15088 39.3325 7.24134 39.5457 7.40235 39.7019L9.20414 41.4683C9.52284 41.7784 9.95357 41.9521 10.4026 41.9517C10.8541 41.9541 11.2885 41.7804 11.6093 41.4683L14.6091 38.5188C14.8979 38.1881 14.8784 37.6954 14.5647 37.3878C14.2506 37.0799 13.748 37.0607 13.4107 37.3439Z" fill="#205f46"/>
<path d="M3.39941 39.5848C3.39941 43.4965 6.63368 46.667 10.6232 46.667C14.6127 46.667 17.847 43.4965 17.847 39.5848C17.847 39.1247 17.4664 38.7516 16.9971 38.7516C16.5278 38.7516 16.1472 39.1247 16.1472 39.5848C16.1472 42.5759 13.674 45.0006 10.6232 45.0006C7.57234 45.0006 5.09912 42.5759 5.09912 39.5848C5.09912 36.5938 7.57234 34.1691 10.6232 34.1691C11.8191 34.1658 12.9831 34.5462 13.9375 35.2525C14.3131 35.5287 14.8459 35.4539 15.1273 35.0857C15.409 34.7175 15.3331 34.1955 14.9575 33.9193C12.7686 32.3099 9.83972 32.0511 7.39266 33.2505C4.94517 34.4502 3.39941 36.9026 3.39941 39.5848Z" fill="#205f46"/>
<path d="M30.595 6.67419C31.0643 6.67419 31.4449 6.30154 31.4449 5.841C31.4449 5.38088 31.0643 5.00781 30.595 5.00781H8.49878C8.02945 5.00781 7.64893 5.38088 7.64893 5.841V9.17377C7.64893 9.6343 8.02945 10.007 8.49878 10.007H30.595C31.0643 10.007 31.4449 9.6343 31.4449 9.17377C31.4449 8.71364 31.0643 8.34058 30.595 8.34058H9.34864V6.67419H30.595Z" fill="#205f46"/>
<path d="M11.0481 11.6729C10.5788 11.6729 10.1982 12.0459 10.1982 12.506C10.1982 12.9666 10.5788 13.3392 11.0481 13.3392H28.0452C28.5145 13.3392 28.8951 12.9666 28.8951 12.506C28.8951 12.0459 28.5145 11.6729 28.0452 11.6729H11.0481Z" fill="#205f46"/>
<path d="M33.1443 17.5049H14.4475C13.9782 17.5049 13.5977 17.8779 13.5977 18.3381C13.5977 18.7986 13.9782 19.1713 14.4475 19.1713H33.1443C33.6137 19.1713 33.9942 18.7986 33.9942 18.3381C33.9942 17.8779 33.6137 17.5049 33.1443 17.5049Z" fill="#205f46"/>
<path d="M24.646 23.3381C24.646 22.8779 24.2655 22.5049 23.7962 22.5049H6.79907C6.32974 22.5049 5.94922 22.8779 5.94922 23.3381C5.94922 23.7986 6.32974 24.1713 6.79907 24.1713H23.7962C24.2655 24.1713 24.646 23.7986 24.646 23.3381Z" fill="#205f46"/>
<path d="M33.1441 22.5049H27.1951C26.7257 22.5049 26.3452 22.8779 26.3452 23.3381C26.3452 23.7986 26.7257 24.1713 27.1951 24.1713H33.1441C33.6134 24.1713 33.9939 23.7986 33.9939 23.3381C33.9939 22.8779 33.6134 22.5049 33.1441 22.5049Z" fill="#205f46"/>
<path d="M15.2976 28.3373C15.767 28.3373 16.1475 27.9646 16.1475 27.5041C16.1475 27.044 15.767 26.6709 15.2976 26.6709H6.79907C6.32974 26.6709 5.94922 27.044 5.94922 27.5041C5.94922 27.9646 6.32974 28.3373 6.79907 28.3373H15.2976Z" fill="#205f46"/>
<path d="M18.697 28.3373H24.646C25.1153 28.3373 25.4959 27.9646 25.4959 27.5041C25.4959 27.044 25.1153 26.6709 24.646 26.6709H18.697C18.2277 26.6709 17.8472 27.044 17.8472 27.5041C17.8472 27.9646 18.2277 28.3373 18.697 28.3373Z" fill="#205f46"/>
<path d="M38.2435 38.3346C37.7742 38.3346 37.3936 38.7077 37.3936 39.1678V47.4997C37.3936 47.9603 37.0131 48.3329 36.5438 48.3329H2.54957C2.08024 48.3329 1.69971 47.9603 1.69971 47.4997V2.50739C1.69971 2.04726 2.08024 1.6742 2.54957 1.6742H36.5438C37.0131 1.6742 37.3936 2.04726 37.3936 2.50739V18.1549C37.3936 18.6151 37.7742 18.9881 38.2435 18.9881C38.7128 18.9881 39.0933 18.6151 39.0933 18.1549V2.50739C39.0933 1.12701 37.9518 0.0078125 36.5438 0.0078125H2.54957C1.14158 0.0078125 0 1.12701 0 2.50739V47.4997C0 48.8805 1.14158 49.9993 2.54957 49.9993H36.5438C37.9518 49.9993 39.0933 48.8805 39.0933 47.4997V39.1678C39.0933 38.7077 38.7128 38.3346 38.2435 38.3346Z" fill="#205f46"/>
</g>
<defs>
<clipPath id="clip0">
<rect width="51" height="50" fill="white"/>
</clipPath>
</defs>
</svg>
