<svg width="50" height="50" viewBox="0 0 50 50" fill="none" xmlns="http://www.w3.org/2000/svg">
<g clip-path="url(#clip0)">
<path d="M49.5041 24.3491L46.6192 22.674L44.9711 15.6321C44.5323 13.7578 42.8815 12.4488 40.9567 12.4488H32.6666V11.1337C32.6666 10.5836 32.2206 10.1377 31.6706 10.1377H0.995996C0.445996 10.1377 0 10.5836 0 11.1337V34.875C0 35.4251 0.445996 35.871 0.995996 35.871H4.19707C4.65996 38.1457 6.67559 39.8629 9.08486 39.8629C11.4941 39.8629 13.5099 38.1457 13.9728 35.871H34.1364V35.8711C34.5993 38.1458 36.6149 39.863 39.0242 39.863C41.4335 39.863 43.4492 38.1458 43.9121 35.8711H49.0041C49.5541 35.8711 50.0001 35.4252 50.0001 34.8751V25.2104C50 24.8556 49.8111 24.5274 49.5041 24.3491ZM9.08486 37.8711C7.43301 37.8711 6.08906 36.5271 6.08906 34.8752C6.08906 33.2233 7.43301 31.8793 9.08486 31.8793C10.7368 31.8793 12.0808 33.2232 12.0808 34.8752C12.0808 36.5271 10.7368 37.8711 9.08486 37.8711ZM30.6747 30.3074H21.6909C21.1409 30.3074 20.6949 30.7533 20.6949 31.3034C20.6949 31.8535 21.1409 32.2994 21.6909 32.2994H30.6747V33.8791H13.9728C13.5099 31.6044 11.4941 29.8872 9.08486 29.8872C6.67559 29.8872 4.65996 31.6043 4.19707 33.8791H1.99199V28.7277H30.6747V30.3074ZM30.6747 13.4449V26.7357H1.99199V12.1298H30.6747V13.4449ZM38.4444 14.441H40.9569C41.9518 14.4409 42.805 15.1175 43.0315 16.0861L44.4914 22.3236H38.4445V14.441H38.4444ZM39.0242 37.8711C37.4395 37.8711 36.1389 36.6339 36.0357 35.0747C36.0489 35.0103 36.0558 34.9436 36.0558 34.8752C36.0558 34.8068 36.0488 34.7401 36.0357 34.6757C36.1389 33.1165 37.4395 31.8793 39.0242 31.8793C40.6762 31.8793 42.0201 33.2232 42.0201 34.8752C42.0201 36.5271 40.6762 37.8711 39.0242 37.8711ZM48.008 29.152H46.1132V28.0976H48.008V29.152ZM48.008 26.1056H45.1172C44.5672 26.1056 44.1212 26.5515 44.1212 27.1016V30.1479C44.1212 30.698 44.5672 31.1439 45.1172 31.1439H48.008V33.8791H43.9121C43.4492 31.6044 41.4335 29.8872 39.0242 29.8872C36.6149 29.8872 34.5993 31.6043 34.1364 33.8791H32.6667V14.4409H36.4524V23.3196C36.4524 23.8697 36.8984 24.3156 37.4484 24.3156H45.4792L48.0079 25.7841V26.1056H48.008Z" fill="#205f46"/>
<path d="M18.3293 30.3066H17.4889C16.9389 30.3066 16.4929 30.7525 16.4929 31.3026C16.4929 31.8527 16.9388 32.2986 17.4889 32.2986H18.3293C18.8793 32.2986 19.3253 31.8527 19.3253 31.3026C19.3253 30.7525 18.8793 30.3066 18.3293 30.3066Z" fill="#205f46"/>
</g>
<defs>
<clipPath id="clip0">
<rect width="50" height="50" fill="white"/>
</clipPath>
</defs>
</svg>
