<svg width="50" height="50" viewBox="0 0 50 50" fill="none" xmlns="http://www.w3.org/2000/svg">
<g clip-path="url(#clip0)">
<path d="M13.6919 22.8109C13.6919 29.3792 19.0164 34.7038 25.5848 34.7038C32.1532 34.7038 37.4777 29.3792 37.4777 22.8109C37.4777 16.2425 32.1532 10.918 25.5848 10.918C19.0196 10.9252 13.6995 16.2457 13.6919 22.8109ZM25.5848 12.5583C31.2473 12.5583 35.8374 17.1483 35.8374 22.8109C35.8374 28.4734 31.2473 33.0635 25.5848 33.0635C19.9223 33.0635 15.3322 28.4734 15.3322 22.8109C15.3386 17.1511 19.9251 12.5647 25.5848 12.5583Z" fill="#205f46"/>
<path d="M41.5207 36.7247L35.0961 39.7602C34.2091 38.1103 32.5075 37.0603 30.635 37.0074L24.7041 36.8444C23.765 36.8176 22.8436 36.5797 22.0086 36.1484L21.4051 35.8357C18.3152 34.225 14.6321 34.229 11.5454 35.8461L11.583 34.4789C11.5954 34.026 11.2386 33.6488 10.7857 33.6364L4.28221 33.4573C3.82929 33.4449 3.45246 33.8017 3.44004 34.2547L3.04719 48.5263C3.03478 48.9792 3.39159 49.3565 3.84451 49.3689L10.348 49.5479H10.3704C10.8149 49.5479 11.1786 49.1943 11.1906 48.7502L11.2094 48.0674L12.8989 47.1627C13.5621 46.8059 14.3374 46.721 15.0618 46.9261L25.151 49.7577C25.1687 49.7629 25.1863 49.7669 25.2043 49.7709C25.9335 49.9235 26.6768 50 27.4217 49.9996C28.9995 50.0004 30.5589 49.6604 31.9929 49.0021C32.0282 48.986 32.0622 48.9672 32.0946 48.946L46.7231 39.4839C47.0875 39.248 47.2052 38.7695 46.9918 38.3914C45.9057 36.4644 43.497 35.7304 41.5207 36.7247ZM4.7095 47.7518L5.0571 35.1197L9.9207 35.2534L9.5731 47.886L4.7095 47.7518ZM31.2541 47.5372C29.4724 48.3413 27.4825 48.5631 25.5675 48.1719L15.5055 45.3474C14.373 45.0275 13.1608 45.16 12.1248 45.7171L11.2614 46.1796L11.4925 37.7807C14.2285 35.961 17.7373 35.774 20.6511 37.2922L21.2546 37.6049C22.3094 38.1496 23.4727 38.4499 24.6593 38.4843L30.5905 38.6473C32.2564 38.6954 33.6713 39.8815 34.0092 41.5138L25.1747 41.2699C24.7217 41.2575 24.3449 41.6147 24.3321 42.0673C24.3197 42.5202 24.6769 42.8974 25.1294 42.9098L34.879 43.1781H34.9019C35.346 43.1777 35.7092 42.8241 35.7212 42.3804C35.7312 42.024 35.7048 41.6672 35.6419 41.3164L42.2315 38.2028C42.2379 38.2 42.2443 38.1968 42.2507 38.1936C43.1854 37.7207 44.3155 37.8788 45.0844 38.5905L31.2541 47.5372Z" fill="#205f46"/>
<path d="M26.4049 8.61152V0.820144C26.4049 0.367223 26.0377 0 25.5848 0C25.1319 0 24.7646 0.367223 24.7646 0.820144V8.61152C24.7646 9.06444 25.1319 9.43166 25.5848 9.43166C26.0377 9.43166 26.4049 9.06444 26.4049 8.61152Z" fill="#205f46"/>
<path d="M32.5558 8.61138V4.92073C32.5558 4.46781 32.1886 4.10059 31.7357 4.10059C31.2827 4.10059 30.9155 4.46781 30.9155 4.92073V8.61138C30.9155 9.0643 31.2827 9.43152 31.7357 9.43152C32.1886 9.43152 32.5558 9.0643 32.5558 8.61138Z" fill="#205f46"/>
<path d="M20.2536 8.61138V4.92073C20.2536 4.46781 19.8863 4.10059 19.4334 4.10059C18.9805 4.10059 18.6133 4.46781 18.6133 4.92073V8.61138C18.6133 9.0643 18.9805 9.43152 19.4334 9.43152C19.8863 9.43152 20.2536 9.0643 20.2536 8.61138Z" fill="#205f46"/>
</g>
<defs>
<clipPath id="clip0">
<rect width="50" height="50" fill="white"/>
</clipPath>
</defs>
</svg>
