<svg width="26" height="26" viewBox="0 0 26 26" fill="none" xmlns="http://www.w3.org/2000/svg">
<g clip-path="url(#clip0)">
<path d="M25.8059 12.4919C25.5738 12.2331 19.9917 6.14453 13 6.14453C6.00836 6.14453 0.426283 12.2331 0.194162 12.4919C-0.0647207 12.7813 -0.0647207 13.2187 0.194162 13.5081C0.426283 13.7669 6.00846 19.8555 13 19.8555C19.9916 19.8555 25.5738 13.7669 25.8059 13.5081C26.0647 13.2187 26.0647 12.7813 25.8059 12.4919ZM13 18.332C10.0602 18.332 7.66799 15.9398 7.66799 13C7.66799 10.0602 10.0602 7.66797 13 7.66797C15.9398 7.66797 18.3321 10.0602 18.3321 13C18.3321 15.9398 15.9398 18.332 13 18.332Z" fill="#FFCF64"/>
<path d="M13.7617 11.4766C13.7617 10.7103 14.1421 10.0362 14.7208 9.62152C14.2015 9.35568 13.6223 9.19141 13 9.19141C10.9 9.19141 9.19141 10.9 9.19141 13C9.19141 15.1 10.9 16.8086 13 16.8086C14.8801 16.8086 16.4363 15.4358 16.7437 13.642C15.2098 14.1358 13.7617 12.9757 13.7617 11.4766Z" fill="#FFCF64"/>
</g>
<defs>
<clipPath id="clip0">
<rect width="26" height="26" fill="white"/>
</clipPath>
</defs>
</svg>
