<svg width="26" height="26" viewBox="0 0 26 26" fill="none" xmlns="http://www.w3.org/2000/svg">
<g clip-path="url(#clip0)">
<path d="M25.9744 7.64407C25.9135 6.26259 25.6901 5.31284 25.3701 4.48986C25.0399 3.61629 24.532 2.83419 23.8666 2.18402C23.2164 1.52374 22.4292 1.01067 21.5657 0.685681C20.738 0.365657 19.7932 0.142255 18.4117 0.0813452C17.0199 0.015277 16.5781 0 13.0481 0C9.51808 0 9.07624 0.015277 7.6896 0.0761868C6.30812 0.137096 5.35837 0.360697 4.53559 0.680522C3.66182 1.01067 2.87972 1.51858 2.22955 2.18402C1.56927 2.83419 1.0564 3.62145 0.731213 4.4849C0.411189 5.31284 0.187787 6.25743 0.126877 7.63891C0.0608092 9.03071 0.0455322 9.47255 0.0455322 13.0025C0.0455322 16.5325 0.0608092 16.9744 0.121719 18.361C0.182629 19.7425 0.406229 20.6922 0.726253 21.5152C1.0564 22.3888 1.56927 23.1709 2.22955 23.8211C2.87972 24.4813 3.66698 24.9944 4.53043 25.3194C5.35837 25.6394 6.30296 25.8628 7.68464 25.9237C9.07108 25.9848 9.51312 25.9999 13.0431 25.9999C16.5731 25.9999 17.0149 25.9848 18.4016 25.9237C19.7831 25.8628 20.7328 25.6394 21.5556 25.3194C23.3029 24.6438 24.6844 23.2624 25.36 21.5152C25.6798 20.6873 25.9034 19.7425 25.9643 18.361C26.0252 16.9744 26.0405 16.5325 26.0405 13.0025C26.0405 9.47255 26.0353 9.03071 25.9744 7.64407ZM23.6331 18.2594C23.5771 19.5292 23.3638 20.2149 23.1861 20.672C22.7492 21.8047 21.8502 22.7037 20.7175 23.1405C20.2604 23.3183 19.5698 23.5316 18.305 23.5873C16.9336 23.6485 16.5223 23.6635 13.0532 23.6635C9.58415 23.6635 9.1677 23.6485 7.8013 23.5873C6.53152 23.5316 5.84584 23.3183 5.38872 23.1405C4.82506 22.9322 4.31199 22.6021 3.89554 22.1703C3.46382 21.7487 3.13367 21.2408 2.92535 20.6772C2.74758 20.22 2.5343 19.5292 2.47855 18.2646C2.41744 16.8932 2.40236 16.4817 2.40236 13.0127C2.40236 9.54358 2.41744 9.12713 2.47855 7.76093C2.5343 6.49115 2.74758 5.80547 2.92535 5.34835C3.13367 4.78449 3.46382 4.27162 3.9007 3.85497C4.32211 3.42325 4.83002 3.0931 5.39388 2.88498C5.851 2.70721 6.54184 2.49393 7.80646 2.43798C9.17782 2.37707 9.58931 2.36179 13.0582 2.36179C16.5324 2.36179 16.9437 2.37707 18.3101 2.43798C19.5799 2.49393 20.2656 2.70721 20.7227 2.88498C21.2864 3.0931 21.7994 3.42325 22.2159 3.85497C22.6476 4.27658 22.9777 4.78449 23.1861 5.34835C23.3638 5.80547 23.5771 6.49611 23.6331 7.76093C23.694 9.13229 23.7093 9.54358 23.7093 13.0127C23.7093 16.4817 23.694 16.8881 23.6331 18.2594Z" fill="#35455C"/>
<path d="M13.0483 6.32339C9.36098 6.32339 6.36926 9.31492 6.36926 13.0024C6.36926 16.69 9.36098 19.6815 13.0483 19.6815C16.7358 19.6815 19.7273 16.69 19.7273 13.0024C19.7273 9.31492 16.7358 6.32339 13.0483 6.32339ZM13.0483 17.335C10.6562 17.335 8.71577 15.3948 8.71577 13.0024C8.71577 10.6101 10.6562 8.66991 13.0483 8.66991C15.4406 8.66991 17.3808 10.6101 17.3808 13.0024C17.3808 15.3948 15.4406 17.335 13.0483 17.335Z" fill="#35455C"/>
<path d="M21.551 6.05956C21.551 6.92063 20.8528 7.61881 19.9915 7.61881C19.1304 7.61881 18.4323 6.92063 18.4323 6.05956C18.4323 5.19829 19.1304 4.50031 19.9915 4.50031C20.8528 4.50031 21.551 5.19829 21.551 6.05956Z" fill="#35455C"/>
</g>
<defs>
<clipPath id="clip0">
<rect width="26" height="26" fill="white"/>
</clipPath>
</defs>
</svg>
