<svg width="27" height="27" viewBox="0 0 27 27" fill="none" xmlns="http://www.w3.org/2000/svg">
<g clip-path="url(#clip0)">
<path d="M25.9854 21.0031H21.4148C21.5338 20.2518 21.6527 19.5004 21.7718 18.7492L22.4942 18.8956C22.5276 18.9024 22.5613 18.9057 22.5951 18.9057C22.6985 18.9057 22.8004 18.874 22.8865 18.8137C23.0004 18.7337 23.0765 18.6104 23.0969 18.4727L23.6391 14.8096C23.6784 14.5428 23.5024 14.2916 23.238 14.2381L22.5097 14.0907C22.5562 13.797 22.6028 13.5034 22.6493 13.2098C23.64 7.00223 17.2872 3.03222 11.8003 3.00554C11.4611 3.00381 11.2913 3.00381 10.952 3.00554C5.46511 3.03222 -0.888102 7.00232 0.102984 13.2098C0.647959 16.6504 1.19269 20.0915 1.73783 23.532H21.0142C21.0406 23.3654 21.067 23.1987 21.0934 23.0321H24.9721C24.9986 23.5688 25.4421 23.9958 25.9854 23.9958C26.5458 23.9958 26.9999 23.5416 26.9999 22.9813V22.0176C27 21.4572 26.5458 21.0031 25.9854 21.0031ZM11.376 20.6058C7.73386 20.6058 4.78145 17.6531 4.78145 14.0115C4.78145 10.3694 7.73386 7.41681 11.376 7.41681C15.0181 7.41681 17.9705 10.3694 17.9705 14.0115C17.9705 17.6531 15.0182 20.6058 11.376 20.6058Z" fill="white"/>
</g>
<defs>
<clipPath id="clip0">
<rect width="27" height="27" fill="white"/>
</clipPath>
</defs>
</svg>
