<svg width="21" height="21" viewBox="0 0 21 21" fill="none" xmlns="http://www.w3.org/2000/svg">
<g clip-path="url(#clip0)">
<path d="M15.9656 13.8919C15.2795 13.2146 14.423 13.2146 13.7413 13.8919C13.2213 14.4075 12.7013 14.9232 12.19 15.4476C12.0502 15.5918 11.9322 15.6224 11.7618 15.5262C11.4253 15.3427 11.0669 15.1941 10.7436 14.9931C9.23596 14.0448 7.97305 12.8256 6.85436 11.4535C6.29938 10.7718 5.80558 10.042 5.46036 9.22048C5.39044 9.05442 5.40355 8.94517 5.53902 8.8097C6.05904 8.30717 6.56595 7.79152 7.07722 7.27587C7.78952 6.55921 7.78952 5.72018 7.07285 4.99915C6.66645 4.58838 6.26005 4.18635 5.85365 3.77558C5.43414 3.35607 5.019 2.93219 4.59512 2.51705C3.90904 1.84845 3.05254 1.84845 2.37084 2.52142C1.84645 3.03706 1.34391 3.56582 0.810785 4.07273C0.316986 4.54031 0.0679017 5.11277 0.0154629 5.78136C-0.0675653 6.86947 0.198999 7.8964 0.57481 8.8971C1.34391 10.9684 2.51505 12.8082 3.93526 14.4949C5.85365 16.776 8.14348 18.5808 10.8222 19.883C12.0283 20.4686 13.2781 20.9187 14.6372 20.993C15.5723 21.0454 16.3851 20.8095 17.0362 20.0797C17.482 19.5815 17.9845 19.127 18.4564 18.6507C19.1556 17.9428 19.16 17.0863 18.4652 16.3871C17.6349 15.5525 16.8003 14.7222 15.9656 13.8919Z" fill="white"/>
<path d="M15.131 10.4091L16.7435 10.1338C16.4901 8.6524 15.7909 7.31084 14.729 6.24458C13.6059 5.12152 12.1857 4.41359 10.6213 4.1951L10.394 5.81633C11.6045 5.98676 12.7057 6.533 13.5753 7.40261C14.3969 8.22415 14.9344 9.26419 15.131 10.4091Z" fill="white"/>
<path d="M17.6524 3.39978C15.7909 1.53821 13.4355 0.362702 10.8354 0L10.6082 1.62123C12.8543 1.93587 14.8907 2.95405 16.4988 4.55781C18.0239 6.0829 19.0246 8.01003 19.3873 10.1294L20.9998 9.85413C20.5759 7.39824 19.4179 5.16959 17.6524 3.39978Z" fill="white"/>
</g>
<defs>
<clipPath id="clip0">
<rect width="21" height="21" fill="white"/>
</clipPath>
</defs>
</svg>
