<svg width="19" height="19" viewBox="0 0 19 19" fill="none" xmlns="http://www.w3.org/2000/svg">
<g clip-path="url(#clip0)">
<path d="M11.419 17.3056C11.2623 17.3447 11.1026 17.3793 10.944 17.4085C10.5295 17.4856 10.2555 17.8842 10.3322 18.2991C10.3701 18.5032 10.486 18.6732 10.6433 18.7841C10.8055 18.8983 11.0119 18.9498 11.2223 18.9107C11.4111 18.8757 11.6014 18.8344 11.7881 18.7878C12.1974 18.686 12.4467 18.2713 12.3446 17.8623C12.2428 17.4528 11.8285 17.2037 11.419 17.3056Z" fill="#FF7C00"/>
<path d="M17.0674 7.0677C17.1209 7.22894 17.223 7.36058 17.352 7.45154C17.5434 7.58628 17.7937 7.63161 18.0326 7.55262C18.4331 7.41964 18.6501 6.98777 18.5176 6.58747C18.4572 6.40499 18.3902 6.22193 18.3189 6.0437C18.1622 5.65202 17.7179 5.46132 17.326 5.618C16.9346 5.77459 16.7438 6.21899 16.9006 6.61079C16.9605 6.7606 17.0167 6.91438 17.0674 7.0677Z" fill="#FF7C00"/>
<path d="M13.9011 16.2151C13.7664 16.304 13.6273 16.3901 13.4872 16.4708C13.1217 16.6816 12.9966 17.1488 13.2073 17.5142C13.2645 17.6135 13.3407 17.6948 13.4285 17.7569C13.6641 17.9226 13.9841 17.9475 14.2506 17.794C14.4171 17.6979 14.5827 17.5957 14.7432 17.4896C15.095 17.2572 15.1918 16.7833 14.9593 16.4313C14.7268 16.0792 14.2531 15.9825 13.9011 16.2151Z" fill="#FF7C00"/>
<path d="M18.9928 9.201C18.9762 8.77943 18.6211 8.4513 18.1994 8.46776C17.7782 8.48438 17.4499 8.83959 17.4664 9.261C17.4727 9.42213 17.4744 9.58566 17.4707 9.74662C17.4647 10.011 17.5941 10.2467 17.795 10.3883C17.9147 10.4726 18.06 10.5236 18.2175 10.5272C18.6391 10.5366 18.9884 10.2022 18.9978 9.7804C19.002 9.58807 19.0004 9.39321 18.9928 9.201Z" fill="#FF7C00"/>
<path d="M16.9424 14.2057C16.6044 13.9521 16.1261 14.021 15.8729 14.3584C15.776 14.4876 15.6739 14.6153 15.5693 14.7382C15.2961 15.0592 15.3347 15.5414 15.6557 15.8148C15.674 15.8303 15.6925 15.8446 15.7117 15.858C16.0308 16.083 16.4744 16.0313 16.7324 15.7285C16.8573 15.5818 16.979 15.4294 17.0949 15.275C17.3481 14.9376 17.2796 14.459 16.9424 14.2057Z" fill="#FF7C00"/>
<path d="M18.0655 11.4447C17.6629 11.3184 17.2343 11.5425 17.1082 11.945C17.0599 12.0988 17.0064 12.2533 16.9486 12.4046C16.8218 12.7377 16.9433 13.1042 17.2219 13.3006C17.273 13.3365 17.3293 13.367 17.3904 13.3901C17.7845 13.5405 18.2258 13.3428 18.376 12.9485C18.4446 12.7686 18.5082 12.5848 18.5658 12.402C18.6918 11.9994 18.4679 11.5709 18.0655 11.4447Z" fill="#FF7C00"/>
<path d="M8.08679 17.4154C7.4039 17.2928 6.74882 17.084 6.12765 16.7928C6.1203 16.789 6.11372 16.7846 6.106 16.7811C5.95962 16.7122 5.81349 16.6384 5.67184 16.5613C5.67135 16.5607 5.67045 16.5603 5.66968 16.56C5.4098 16.4169 5.15616 16.2585 4.90976 16.0851C1.31675 13.5541 0.452848 8.57174 2.98403 4.97877C3.53443 4.19778 4.20049 3.54621 4.94305 3.0298C4.9522 3.02343 4.96135 3.0171 4.97041 3.01069C7.58708 1.20773 11.1401 1.08622 13.9186 2.93893L13.3218 3.80115C13.1559 4.04115 13.258 4.21603 13.5484 4.18989L16.1406 3.95783C16.4314 3.93169 16.6053 3.68014 16.5271 3.3993L15.831 0.89132C15.7531 0.610159 15.5536 0.576505 15.3875 0.816455L14.7894 1.68073C12.7503 0.311967 10.3047 -0.209961 7.87731 0.210963C7.63282 0.253276 7.39177 0.305064 7.15402 0.365348C7.15219 0.365675 7.15072 0.365879 7.14925 0.366206C7.14006 0.368452 7.13074 0.371434 7.1218 0.373925C5.02861 0.911455 3.20233 2.13228 1.89917 3.87414C1.88818 3.88717 1.87687 3.89991 1.86649 3.91408C1.82316 3.97245 1.78015 4.03216 1.73804 4.09187C1.66918 4.18973 1.6013 4.29004 1.53636 4.39035C1.52823 4.40244 1.52203 4.41473 1.51492 4.42694C0.439533 6.09337 -0.0791685 8.01991 0.00978675 9.98126C0.00999096 9.98771 0.00962338 9.99421 0.00978675 10.0008C0.0184045 10.1924 0.033598 10.3867 0.0542235 10.5779C0.0553263 10.5902 0.0580628 10.6019 0.0601457 10.6142C0.0814656 10.8065 0.108218 10.9993 0.141749 11.192C0.48254 13.158 1.41 14.9272 2.79975 16.3038C2.80297 16.3071 2.80632 16.3106 2.80959 16.3139C2.81073 16.3152 2.812 16.3158 2.8131 16.317C3.18649 16.6853 3.59263 17.0259 4.02993 17.3339C5.17434 18.1403 6.44867 18.6733 7.81723 18.9189C8.23247 18.9936 8.62914 18.7171 8.70363 18.3021C8.77809 17.8868 8.50191 17.4898 8.08679 17.4154Z" fill="#FF7C00"/>
<path d="M9.03132 3.39803C8.68975 3.39803 8.41309 3.67494 8.41309 4.01602V10.1729L14.0441 13.0838C14.1347 13.1307 14.2317 13.1528 14.3272 13.1528C14.5509 13.1528 14.7669 13.031 14.8767 12.8185C15.0334 12.5152 14.9148 12.1426 14.6115 11.986L9.64886 9.42036V4.01602C9.64882 3.67494 9.37248 3.39803 9.03132 3.39803Z" fill="#FF7C00"/>
</g>
<defs>
<clipPath id="clip0">
<rect width="19" height="19" fill="white"/>
</clipPath>
</defs>
</svg>
