<svg width="22" height="14" viewBox="0 0 22 14" fill="none" xmlns="http://www.w3.org/2000/svg">
<path d="M21.8039 11.9198C21.7448 11.8208 21.379 11.026 19.6189 9.39239C17.7762 7.68177 18.0238 7.95954 20.2432 5.00169C21.5949 3.20031 22.1353 2.10023 21.9662 1.62994C21.8053 1.18166 20.8111 1.29992 20.8111 1.29992L17.5053 1.31917C17.5053 1.31917 17.2606 1.28617 17.0777 1.3948C16.9003 1.50206 16.7862 1.74958 16.7862 1.74958C16.7862 1.74958 16.2622 3.14393 15.5637 4.32927C14.091 6.83058 13.501 6.96259 13.2604 6.8072C12.7007 6.44555 12.841 5.35234 12.841 4.57679C12.841 2.15248 13.2081 1.14178 12.1246 0.880511C11.7643 0.793879 11.5003 0.736125 10.5803 0.7265C9.40049 0.714124 8.4008 0.730625 7.83563 1.00702C7.45885 1.19128 7.16871 1.60244 7.34609 1.62582C7.56474 1.65469 8.05977 1.7592 8.32242 2.11673C8.66207 2.57739 8.64969 3.61421 8.64969 3.61421C8.64969 3.61421 8.84495 6.46755 8.19453 6.82233C7.74762 7.06572 7.1357 6.56931 5.82248 4.29902C5.15006 3.13705 4.64127 1.85133 4.64127 1.85133C4.64127 1.85133 4.54364 1.61207 4.369 1.48418C4.15724 1.32879 3.86021 1.27929 3.86021 1.27929L0.716734 1.29854C0.716734 1.29854 0.245075 1.31229 0.0718122 1.51718C-0.0821991 1.70007 0.0594363 2.07685 0.0594363 2.07685C0.0594363 2.07685 2.52087 7.8344 5.30682 10.7372C7.86313 13.3981 10.7646 13.2234 10.7646 13.2234H12.0792C12.0792 13.2234 12.4766 13.1794 12.6787 12.9608C12.8657 12.76 12.8589 12.3832 12.8589 12.3832C12.8589 12.3832 12.8327 10.619 13.6523 10.3591C14.4595 10.1033 15.4963 12.0642 16.595 12.8191C17.4256 13.3898 18.0568 13.2647 18.0568 13.2647L20.9953 13.2234C20.9953 13.2234 22.5327 13.1285 21.8039 11.9198Z" fill="black"/>
</svg>
